<svg width="73" height="73" viewBox="0 0 73 73" fill="none" xmlns="http://www.w3.org/2000/svg">
<g clip-path="url(#clip0_18_339)">
<path d="M70.8385 37.9677H2.16155C1.34463 37.9677 0.684631 37.3077 0.684631 36.4908C0.684631 35.6739 1.34463 35.0139 2.16155 35.0139H67.2708L58.3077 26.0508C57.7308 25.4739 57.7308 24.537 58.3077 23.96C58.8846 23.3831 59.8216 23.3831 60.3985 23.96L71.8862 35.4477C72.3108 35.8723 72.4354 36.5047 72.2046 37.0585C71.9739 37.6077 71.4339 37.9677 70.8385 37.9677Z" fill="white"/>
<path d="M59.337 49.4693C58.9585 49.4693 58.5801 49.3263 58.2939 49.0355C57.717 48.4586 57.717 47.5217 58.2939 46.9447L69.7954 35.4432C70.3724 34.8663 71.3093 34.8663 71.8862 35.4432C72.4631 36.0201 72.4631 36.957 71.8862 37.534L60.3847 49.0355C60.0939 49.3263 59.7154 49.4693 59.337 49.4693Z" fill="white"/>
</g>
<defs>
<clipPath id="clip0_18_339">
<rect width="72" height="72" fill="white" transform="translate(0.5 0.5)"/>
</clipPath>
</defs>
</svg>
