<svg width="118" height="118" viewBox="0 0 118 118" fill="none" xmlns="http://www.w3.org/2000/svg">
<path d="M94.4 30.2375C94.3166 27.6943 93.2408 25.2848 91.4029 23.5251C89.5649 21.7653 87.1111 20.795 84.5667 20.8221C82.8936 20.7786 81.2352 21.1444 79.7357 21.8877C78.2361 22.6311 76.9409 23.7294 75.9625 25.0873C74.9012 23.6431 73.4843 22.4981 71.8495 21.7636C70.2147 21.0292 68.4176 20.7302 66.6331 20.8958C64.4005 21.0499 62.2873 21.9609 60.6425 23.4784C58.9976 24.9958 57.9196 27.0289 57.5864 29.2419H41.091C39.461 29.2419 37.8978 29.8894 36.7453 31.0419C35.5927 32.1945 34.9452 33.7577 34.9452 35.3877V82.686C34.9457 83.4118 35.0747 84.1317 35.3262 84.8125C35.7576 85.9522 36.5292 86.9316 37.5363 87.6177C38.5434 88.3038 39.7373 88.6633 40.9558 88.6475C41.6621 88.6301 42.3604 88.4929 43.0208 88.2419L56.64 83.5833C58.2008 83.0439 59.8975 83.0439 61.4583 83.5833L75.1021 88.2419C76.5769 88.7858 78.2059 88.7316 79.6412 88.0908C81.0766 87.4501 82.2046 86.2736 82.7844 84.8125C83.0286 84.1514 83.1535 83.4522 83.1531 82.7475V48.6627L88.0698 44.1394C90.0484 42.4019 91.6358 40.2643 92.727 37.8679C93.8182 35.4714 94.3884 32.8707 94.4 30.2375ZM80.0802 82.686C80.0809 83.0385 80.0185 83.3882 79.8958 83.7185C79.5913 84.4183 79.0315 84.9757 78.3304 85.2772C77.6293 85.5786 76.8396 85.6015 76.1223 85.341L62.4785 80.6702C60.2621 79.9209 57.8608 79.9209 55.6444 80.6702L42.0006 85.341C41.2834 85.6046 40.4926 85.5832 39.7907 85.2814C39.0888 84.9796 38.5292 84.4203 38.2271 83.7185C38.1044 83.3882 38.042 83.0385 38.0427 82.686V35.314C38.0459 34.5065 38.3681 33.733 38.9391 33.162C39.5101 32.5911 40.2836 32.2689 41.091 32.2656H57.6479C58.1976 36.7932 60.3834 40.9636 63.7937 43.9919L72.7052 52.1658C73.6183 52.9763 74.7969 53.4238 76.0178 53.4238C77.2387 53.4238 78.4173 52.9763 79.3304 52.1658L80.1294 51.4529L80.0802 82.686ZM77.2162 49.9165C76.8704 50.2022 76.4357 50.3586 75.9871 50.3586C75.5384 50.3586 75.1038 50.2022 74.7579 49.9165L65.8342 41.7917C64.1965 40.3435 62.8834 38.5655 61.981 36.5743C61.0786 34.5831 60.6072 32.4236 60.5979 30.2375C60.6639 28.5893 61.3457 27.0258 62.5087 25.856C63.6717 24.6862 65.2311 23.9952 66.8789 23.9196C67.0877 23.9073 67.297 23.9073 67.5058 23.9196C68.8742 23.8761 70.2247 24.2394 71.3865 24.9636C72.5483 25.6878 73.4692 26.7404 74.0327 27.9881C74.1974 28.3604 74.4684 28.6757 74.8118 28.8944C75.1551 29.1131 75.5555 29.2254 75.9625 29.2173C76.3765 29.2204 76.7818 29.099 77.1259 28.8688C77.47 28.6387 77.737 28.3104 77.8923 27.9267C78.4635 26.6571 79.4056 25.5901 80.5947 24.8661C81.7838 24.1421 83.1642 23.795 84.5544 23.8704C86.3006 23.8404 87.9888 24.4972 89.2555 25.6995C90.5222 26.9019 91.2661 28.5535 91.3271 30.299C91.3141 32.491 90.8363 34.6554 89.9252 36.6492C89.0141 38.643 87.6905 40.4209 86.0417 41.8654L77.2162 49.9165Z" fill="#242424"/>
<path d="M70.0625 57.4635H60.5364V47.9375C60.5364 47.53 60.3745 47.1392 60.0864 46.8511C59.7983 46.5629 59.4075 46.401 59 46.401C58.5925 46.401 58.2017 46.5629 57.9135 46.8511C57.6254 47.1392 57.4635 47.53 57.4635 47.9375V57.439H47.9375C47.53 57.439 47.1392 57.6008 46.851 57.889C46.5629 58.1771 46.401 58.5679 46.401 58.9754C46.401 59.3829 46.5629 59.7737 46.851 60.0619C47.1392 60.35 47.53 60.5119 47.9375 60.5119H57.4389V70.0625C57.4389 70.47 57.6008 70.8608 57.8889 71.1489C58.1771 71.4371 58.5679 71.599 58.9754 71.599C59.3829 71.599 59.7737 71.4371 60.0618 71.1489C60.35 70.8608 60.5118 70.47 60.5118 70.0625V60.5365H70.0625C70.47 60.5365 70.8608 60.3746 71.1489 60.0864C71.437 59.7983 71.5989 59.4075 71.5989 59C71.5989 58.5925 71.437 58.2017 71.1489 57.9136C70.8608 57.6254 70.47 57.4635 70.0625 57.4635Z" fill="#16A41C"/>
<path d="M70.0625 57.4635H60.5364V47.9375C60.5364 47.53 60.3745 47.1392 60.0864 46.8511C59.7983 46.5629 59.4075 46.401 59 46.401C58.5925 46.401 58.2017 46.5629 57.9135 46.8511C57.6254 47.1392 57.4635 47.53 57.4635 47.9375V57.439H47.9375C47.53 57.439 47.1392 57.6008 46.851 57.889C46.5629 58.1771 46.401 58.5679 46.401 58.9754C46.401 59.3829 46.5629 59.7737 46.851 60.0619C47.1392 60.35 47.53 60.5119 47.9375 60.5119H57.4389V70.0625C57.4389 70.47 57.6008 70.8608 57.8889 71.1489C58.1771 71.4371 58.5679 71.599 58.9754 71.599C59.3829 71.599 59.7737 71.4371 60.0618 71.1489C60.35 70.8608 60.5118 70.47 60.5118 70.0625V60.5365H70.0625C70.47 60.5365 70.8608 60.3746 71.1489 60.0864C71.437 59.7983 71.5989 59.4075 71.5989 59C71.5989 58.5925 71.437 58.2017 71.1489 57.9136C70.8608 57.6254 70.47 57.4635 70.0625 57.4635Z" fill="url(#paint0_linear_18_74)" fill-opacity="0.2"/>
<path d="M70.0625 57.4635H60.5364V47.9375C60.5364 47.53 60.3745 47.1392 60.0864 46.8511C59.7983 46.5629 59.4075 46.401 59 46.401C58.5925 46.401 58.2017 46.5629 57.9135 46.8511C57.6254 47.1392 57.4635 47.53 57.4635 47.9375V57.439H47.9375C47.53 57.439 47.1392 57.6008 46.851 57.889C46.5629 58.1771 46.401 58.5679 46.401 58.9754C46.401 59.3829 46.5629 59.7737 46.851 60.0619C47.1392 60.35 47.53 60.5119 47.9375 60.5119H57.4389V70.0625C57.4389 70.47 57.6008 70.8608 57.8889 71.1489C58.1771 71.4371 58.5679 71.599 58.9754 71.599C59.3829 71.599 59.7737 71.4371 60.0618 71.1489C60.35 70.8608 60.5118 70.47 60.5118 70.0625V60.5365H70.0625C70.47 60.5365 70.8608 60.3746 71.1489 60.0864C71.437 59.7983 71.5989 59.4075 71.5989 59C71.5989 58.5925 71.437 58.2017 71.1489 57.9136C70.8608 57.6254 70.47 57.4635 70.0625 57.4635Z" fill="url(#paint1_linear_18_74)" fill-opacity="0.2"/>
<path d="M70.0625 57.4635H60.5364V47.9375C60.5364 47.53 60.3745 47.1392 60.0864 46.8511C59.7983 46.5629 59.4075 46.401 59 46.401C58.5925 46.401 58.2017 46.5629 57.9135 46.8511C57.6254 47.1392 57.4635 47.53 57.4635 47.9375V57.439H47.9375C47.53 57.439 47.1392 57.6008 46.851 57.889C46.5629 58.1771 46.401 58.5679 46.401 58.9754C46.401 59.3829 46.5629 59.7737 46.851 60.0619C47.1392 60.35 47.53 60.5119 47.9375 60.5119H57.4389V70.0625C57.4389 70.47 57.6008 70.8608 57.8889 71.1489C58.1771 71.4371 58.5679 71.599 58.9754 71.599C59.3829 71.599 59.7737 71.4371 60.0618 71.1489C60.35 70.8608 60.5118 70.47 60.5118 70.0625V60.5365H70.0625C70.47 60.5365 70.8608 60.3746 71.1489 60.0864C71.437 59.7983 71.5989 59.4075 71.5989 59C71.5989 58.5925 71.437 58.2017 71.1489 57.9136C70.8608 57.6254 70.47 57.4635 70.0625 57.4635Z" fill="url(#paint2_radial_18_74)" fill-opacity="0.2"/>
<defs>
<linearGradient id="paint0_linear_18_74" x1="70.2385" y1="49.038" x2="53.4182" y2="54.5426" gradientUnits="userSpaceOnUse">
<stop stop-color="white"/>
<stop offset="1" stop-color="white" stop-opacity="0"/>
</linearGradient>
<linearGradient id="paint1_linear_18_74" x1="70.3568" y1="70.134" x2="58.9742" y2="70.3733" gradientUnits="userSpaceOnUse">
<stop stop-color="white"/>
<stop offset="1" stop-color="white" stop-opacity="0"/>
</linearGradient>
<radialGradient id="paint2_radial_18_74" cx="0" cy="0" r="1" gradientUnits="userSpaceOnUse" gradientTransform="translate(59 59) rotate(90) scale(12.599)">
<stop stop-color="#1C560D"/>
<stop offset="1" stop-opacity="0"/>
</radialGradient>
</defs>
</svg>
