<svg width="150" height="150" viewBox="0 0 150 150" fill="none" xmlns="http://www.w3.org/2000/svg">
<g clip-path="url(#clip0_18_575)">
<path d="M132.725 105.856C131.902 105.515 130.956 105.704 130.326 106.333L106.265 130.394C105.636 131.024 105.447 131.97 105.788 132.793C106.129 133.616 106.932 134.152 107.822 134.152H131.883C133.099 134.152 134.084 133.167 134.084 131.95V107.89C134.084 107 133.548 106.197 132.725 105.856ZM113.137 129.749L129.681 113.205V129.749H113.137Z" fill="#482728"/>
<path d="M132.725 105.856C131.902 105.515 130.956 105.704 130.326 106.333L106.265 130.394C105.636 131.024 105.447 131.97 105.788 132.793C106.129 133.616 106.932 134.152 107.822 134.152H131.883C133.099 134.152 134.084 133.167 134.084 131.95V107.89C134.084 107 133.548 106.197 132.725 105.856ZM113.137 129.749L129.681 113.205V129.749H113.137Z" fill="url(#paint0_linear_18_575)" fill-opacity="0.2"/>
<path d="M132.725 105.856C131.902 105.515 130.956 105.704 130.326 106.333L106.265 130.394C105.636 131.024 105.447 131.97 105.788 132.793C106.129 133.616 106.932 134.152 107.822 134.152H131.883C133.099 134.152 134.084 133.167 134.084 131.95V107.89C134.084 107 133.548 106.197 132.725 105.856ZM113.137 129.749L129.681 113.205V129.749H113.137Z" fill="url(#paint1_linear_18_575)" fill-opacity="0.2"/>
<path d="M132.725 105.856C131.902 105.515 130.956 105.704 130.326 106.333L106.265 130.394C105.636 131.024 105.447 131.97 105.788 132.793C106.129 133.616 106.932 134.152 107.822 134.152H131.883C133.099 134.152 134.084 133.167 134.084 131.95V107.89C134.084 107 133.548 106.197 132.725 105.856ZM113.137 129.749L129.681 113.205V129.749H113.137Z" fill="url(#paint2_radial_18_575)" fill-opacity="0.2"/>
<path d="M148.641 70.5666C147.819 70.2256 146.872 70.414 146.242 71.0436L139.648 77.6375V32.8041C139.648 31.588 138.662 30.6024 137.446 30.6024H120.53L126.671 24.4618C126.671 24.4609 126.672 24.4597 126.673 24.4588L132.59 18.542C133.858 17.2743 134.556 15.588 134.556 13.795C134.556 12.0021 133.858 10.3163 132.59 9.04806L125.748 2.20606C124.48 0.93838 122.794 0.240234 121.001 0.240234C119.208 0.240234 117.522 0.93838 116.254 2.20606L110.334 8.1258L103.181 15.2789L87.858 30.6021H19.5176V8.82131C19.5176 7.60519 18.5318 6.61964 17.316 6.61964C7.76808 6.62023 0 14.3877 0 23.9362V117.448C0 117.61 0.01875 117.769 0.0521485 117.921C0.356251 121.972 2.10909 125.737 5.03849 128.594C8.16974 131.648 12.3032 133.33 16.6779 133.33H83.9548L71.2841 146.001C70.6545 146.631 70.4662 147.577 70.8069 148.4C71.1476 149.223 71.9506 149.759 72.841 149.759H147.799C149.014 149.759 150 148.774 150 147.558V72.6007C150 71.7104 149.464 70.9074 148.641 70.5666ZM119.368 5.32003C120.268 4.41944 121.735 4.41944 122.635 5.32003L129.477 12.1623C130.378 13.0626 130.378 14.5283 129.477 15.4289L125.114 19.7918L115.005 9.68293L119.368 5.32003ZM111.891 12.7966L122 22.9052L117.961 26.945L107.852 16.8364L111.891 12.7966ZM145.598 97.3396H141.536C140.319 97.3396 139.334 98.3252 139.334 99.5413C139.334 100.757 140.319 101.743 141.536 101.743H145.598V108.378H141.536C140.319 108.378 139.334 109.363 139.334 110.579C139.334 111.795 140.319 112.781 141.536 112.781H145.598V119.415H141.536C140.319 119.415 139.334 120.401 139.334 121.617C139.334 122.833 140.319 123.818 141.536 123.818H145.598V130.453H141.536C140.319 130.453 139.334 131.439 139.334 132.655C139.334 133.871 140.319 134.856 141.536 134.856H145.598V145.357H78.156L100.395 123.119C101.255 122.258 101.255 120.865 100.395 120.005C100.296 119.906 100.19 119.821 100.079 119.744C99.2217 119.157 98.0422 119.244 97.2808 120.005L88.3581 128.928H16.6782C10.0008 128.928 4.6254 123.714 4.41388 117.049C4.42647 116.631 4.45899 116.216 4.51114 115.806C4.51144 115.803 4.51173 115.801 4.51202 115.799C4.53663 115.604 4.56622 115.41 4.59991 115.217C4.60372 115.195 4.60782 115.173 4.61163 115.151C4.64239 114.979 4.67696 114.808 4.71476 114.638C4.7253 114.59 4.73644 114.543 4.74757 114.496C4.78097 114.351 4.817 114.208 4.85567 114.066C4.87677 113.988 4.89874 113.912 4.9213 113.835C4.95353 113.723 4.98692 113.611 5.02237 113.501C5.05782 113.39 5.09562 113.281 5.134 113.172C5.16066 113.095 5.18702 113.019 5.21573 112.943C5.26935 112.799 5.32618 112.656 5.38478 112.515C5.40148 112.474 5.41788 112.433 5.43517 112.392C5.51046 112.216 5.58868 112.042 5.6713 111.871C5.67482 111.863 5.67804 111.856 5.68155 111.849C7.40363 108.285 10.7156 105.628 14.6904 104.804C14.7015 104.801 14.7126 104.799 14.7238 104.796C14.906 104.759 15.09 104.727 15.2751 104.698C15.3059 104.693 15.3367 104.686 15.368 104.682C15.5353 104.656 15.7043 104.636 15.8734 104.617C15.9208 104.612 15.968 104.605 16.0158 104.6C16.1789 104.584 16.3436 104.573 16.5082 104.563C16.5604 104.559 16.6125 104.554 16.6647 104.551C16.8803 104.54 17.0977 104.535 17.316 104.535C18.5318 104.535 19.5176 103.549 19.5176 102.333V86.3694C19.5176 85.1533 18.5318 84.1677 17.316 84.1677C16.1001 84.1677 15.1143 85.1533 15.1143 86.3694V100.27C11.3965 100.74 7.94562 102.398 5.22452 105.056C4.93829 105.335 4.667 105.626 4.40274 105.921V23.9362C4.40274 17.5667 9.03928 12.259 15.114 11.2108V32.8041V77.563V77.5633C15.114 78.7792 16.0998 79.765 17.3157 79.765C18.5315 79.765 19.5173 78.7792 19.5173 77.5633V77.563V35.0057H83.455L71.2838 47.1768C70.424 48.037 70.424 49.4307 71.2838 50.2905C72.1437 51.1501 73.5377 51.1501 74.3972 50.2905L90.3268 34.3609C90.3274 34.3603 90.3277 34.3597 90.3283 34.3594L104.738 19.9497L114.846 30.0587L113.66 31.2446C113.66 31.2455 113.658 31.2463 113.657 31.2472L69.2644 75.6409L59.1558 65.5322L67.9062 56.7818C68.7661 55.9217 68.7661 54.528 67.9062 53.6682C67.0463 52.8086 65.6524 52.8086 64.7928 53.6682L54.4853 63.9754C54.4302 64.0305 54.3786 64.0888 54.3303 64.1486C54.3142 64.1685 54.2998 64.1899 54.2846 64.2107C54.2535 64.252 54.2231 64.2936 54.1946 64.3369C54.1785 64.3621 54.1639 64.3879 54.1486 64.414C54.1243 64.455 54.1009 64.4966 54.0795 64.5391C54.0654 64.5666 54.0528 64.5945 54.04 64.6232C54.0203 64.6662 54.0022 64.7102 53.9855 64.7541C53.9796 64.7697 53.972 64.7843 53.9664 64.7998L49.6771 76.9507L46.7526 85.2356C46.714 85.3458 46.6861 85.4577 46.6653 85.5705H39.3434C38.1276 85.5705 37.1418 86.556 37.1418 87.7721C37.1418 88.9883 38.1276 89.9738 39.3434 89.9738H100.314C101.531 89.9738 102.516 88.9883 102.516 87.7721C102.516 86.556 101.531 85.5705 100.314 85.5705H56.5703L69.9971 80.8308C70.0082 80.8267 70.0188 80.8212 70.0299 80.8171C70.0821 80.7977 70.1333 80.776 70.184 80.7529C70.2042 80.7435 70.2245 80.7347 70.2441 80.7251C70.2968 80.6987 70.3487 80.6697 70.3997 80.6386C70.4161 80.6287 70.4331 80.6196 70.4492 80.6093C70.5022 80.5753 70.5538 80.5381 70.6044 80.4989C70.617 80.4892 70.6302 80.4807 70.6425 80.4708C70.7038 80.4215 70.7638 80.3685 70.8206 80.3117L116.127 35.006H135.244V82.0411L103.751 113.534C102.891 114.395 102.891 115.788 103.751 116.648C103.805 116.702 103.861 116.752 103.919 116.799C104.322 117.128 104.815 117.293 105.308 117.293C105.801 117.293 106.294 117.128 106.698 116.799C106.755 116.752 106.811 116.702 106.865 116.648C106.866 116.647 106.865 116.648 106.866 116.647L145.598 77.9152V97.3396ZM65.2375 77.8408L58.9311 80.067L54.7293 75.8653L56.9556 69.5588L65.2375 77.8408Z" fill="#482728"/>
<path d="M148.641 70.5666C147.819 70.2256 146.872 70.414 146.242 71.0436L139.648 77.6375V32.8041C139.648 31.588 138.662 30.6024 137.446 30.6024H120.53L126.671 24.4618C126.671 24.4609 126.672 24.4597 126.673 24.4588L132.59 18.542C133.858 17.2743 134.556 15.588 134.556 13.795C134.556 12.0021 133.858 10.3163 132.59 9.04806L125.748 2.20606C124.48 0.93838 122.794 0.240234 121.001 0.240234C119.208 0.240234 117.522 0.93838 116.254 2.20606L110.334 8.1258L103.181 15.2789L87.858 30.6021H19.5176V8.82131C19.5176 7.60519 18.5318 6.61964 17.316 6.61964C7.76808 6.62023 0 14.3877 0 23.9362V117.448C0 117.61 0.01875 117.769 0.0521485 117.921C0.356251 121.972 2.10909 125.737 5.03849 128.594C8.16974 131.648 12.3032 133.33 16.6779 133.33H83.9548L71.2841 146.001C70.6545 146.631 70.4662 147.577 70.8069 148.4C71.1476 149.223 71.9506 149.759 72.841 149.759H147.799C149.014 149.759 150 148.774 150 147.558V72.6007C150 71.7104 149.464 70.9074 148.641 70.5666ZM119.368 5.32003C120.268 4.41944 121.735 4.41944 122.635 5.32003L129.477 12.1623C130.378 13.0626 130.378 14.5283 129.477 15.4289L125.114 19.7918L115.005 9.68293L119.368 5.32003ZM111.891 12.7966L122 22.9052L117.961 26.945L107.852 16.8364L111.891 12.7966ZM145.598 97.3396H141.536C140.319 97.3396 139.334 98.3252 139.334 99.5413C139.334 100.757 140.319 101.743 141.536 101.743H145.598V108.378H141.536C140.319 108.378 139.334 109.363 139.334 110.579C139.334 111.795 140.319 112.781 141.536 112.781H145.598V119.415H141.536C140.319 119.415 139.334 120.401 139.334 121.617C139.334 122.833 140.319 123.818 141.536 123.818H145.598V130.453H141.536C140.319 130.453 139.334 131.439 139.334 132.655C139.334 133.871 140.319 134.856 141.536 134.856H145.598V145.357H78.156L100.395 123.119C101.255 122.258 101.255 120.865 100.395 120.005C100.296 119.906 100.19 119.821 100.079 119.744C99.2217 119.157 98.0422 119.244 97.2808 120.005L88.3581 128.928H16.6782C10.0008 128.928 4.6254 123.714 4.41388 117.049C4.42647 116.631 4.45899 116.216 4.51114 115.806C4.51144 115.803 4.51173 115.801 4.51202 115.799C4.53663 115.604 4.56622 115.41 4.59991 115.217C4.60372 115.195 4.60782 115.173 4.61163 115.151C4.64239 114.979 4.67696 114.808 4.71476 114.638C4.7253 114.59 4.73644 114.543 4.74757 114.496C4.78097 114.351 4.817 114.208 4.85567 114.066C4.87677 113.988 4.89874 113.912 4.9213 113.835C4.95353 113.723 4.98692 113.611 5.02237 113.501C5.05782 113.39 5.09562 113.281 5.134 113.172C5.16066 113.095 5.18702 113.019 5.21573 112.943C5.26935 112.799 5.32618 112.656 5.38478 112.515C5.40148 112.474 5.41788 112.433 5.43517 112.392C5.51046 112.216 5.58868 112.042 5.6713 111.871C5.67482 111.863 5.67804 111.856 5.68155 111.849C7.40363 108.285 10.7156 105.628 14.6904 104.804C14.7015 104.801 14.7126 104.799 14.7238 104.796C14.906 104.759 15.09 104.727 15.2751 104.698C15.3059 104.693 15.3367 104.686 15.368 104.682C15.5353 104.656 15.7043 104.636 15.8734 104.617C15.9208 104.612 15.968 104.605 16.0158 104.6C16.1789 104.584 16.3436 104.573 16.5082 104.563C16.5604 104.559 16.6125 104.554 16.6647 104.551C16.8803 104.54 17.0977 104.535 17.316 104.535C18.5318 104.535 19.5176 103.549 19.5176 102.333V86.3694C19.5176 85.1533 18.5318 84.1677 17.316 84.1677C16.1001 84.1677 15.1143 85.1533 15.1143 86.3694V100.27C11.3965 100.74 7.94562 102.398 5.22452 105.056C4.93829 105.335 4.667 105.626 4.40274 105.921V23.9362C4.40274 17.5667 9.03928 12.259 15.114 11.2108V32.8041V77.563V77.5633C15.114 78.7792 16.0998 79.765 17.3157 79.765C18.5315 79.765 19.5173 78.7792 19.5173 77.5633V77.563V35.0057H83.455L71.2838 47.1768C70.424 48.037 70.424 49.4307 71.2838 50.2905C72.1437 51.1501 73.5377 51.1501 74.3972 50.2905L90.3268 34.3609C90.3274 34.3603 90.3277 34.3597 90.3283 34.3594L104.738 19.9497L114.846 30.0587L113.66 31.2446C113.66 31.2455 113.658 31.2463 113.657 31.2472L69.2644 75.6409L59.1558 65.5322L67.9062 56.7818C68.7661 55.9217 68.7661 54.528 67.9062 53.6682C67.0463 52.8086 65.6524 52.8086 64.7928 53.6682L54.4853 63.9754C54.4302 64.0305 54.3786 64.0888 54.3303 64.1486C54.3142 64.1685 54.2998 64.1899 54.2846 64.2107C54.2535 64.252 54.2231 64.2936 54.1946 64.3369C54.1785 64.3621 54.1639 64.3879 54.1486 64.414C54.1243 64.455 54.1009 64.4966 54.0795 64.5391C54.0654 64.5666 54.0528 64.5945 54.04 64.6232C54.0203 64.6662 54.0022 64.7102 53.9855 64.7541C53.9796 64.7697 53.972 64.7843 53.9664 64.7998L49.6771 76.9507L46.7526 85.2356C46.714 85.3458 46.6861 85.4577 46.6653 85.5705H39.3434C38.1276 85.5705 37.1418 86.556 37.1418 87.7721C37.1418 88.9883 38.1276 89.9738 39.3434 89.9738H100.314C101.531 89.9738 102.516 88.9883 102.516 87.7721C102.516 86.556 101.531 85.5705 100.314 85.5705H56.5703L69.9971 80.8308C70.0082 80.8267 70.0188 80.8212 70.0299 80.8171C70.0821 80.7977 70.1333 80.776 70.184 80.7529C70.2042 80.7435 70.2245 80.7347 70.2441 80.7251C70.2968 80.6987 70.3487 80.6697 70.3997 80.6386C70.4161 80.6287 70.4331 80.6196 70.4492 80.6093C70.5022 80.5753 70.5538 80.5381 70.6044 80.4989C70.617 80.4892 70.6302 80.4807 70.6425 80.4708C70.7038 80.4215 70.7638 80.3685 70.8206 80.3117L116.127 35.006H135.244V82.0411L103.751 113.534C102.891 114.395 102.891 115.788 103.751 116.648C103.805 116.702 103.861 116.752 103.919 116.799C104.322 117.128 104.815 117.293 105.308 117.293C105.801 117.293 106.294 117.128 106.698 116.799C106.755 116.752 106.811 116.702 106.865 116.648C106.866 116.647 106.865 116.648 106.866 116.647L145.598 77.9152V97.3396ZM65.2375 77.8408L58.9311 80.067L54.7293 75.8653L56.9556 69.5588L65.2375 77.8408Z" fill="url(#paint3_linear_18_575)" fill-opacity="0.2"/>
<path d="M148.641 70.5666C147.819 70.2256 146.872 70.414 146.242 71.0436L139.648 77.6375V32.8041C139.648 31.588 138.662 30.6024 137.446 30.6024H120.53L126.671 24.4618C126.671 24.4609 126.672 24.4597 126.673 24.4588L132.59 18.542C133.858 17.2743 134.556 15.588 134.556 13.795C134.556 12.0021 133.858 10.3163 132.59 9.04806L125.748 2.20606C124.48 0.93838 122.794 0.240234 121.001 0.240234C119.208 0.240234 117.522 0.93838 116.254 2.20606L110.334 8.1258L103.181 15.2789L87.858 30.6021H19.5176V8.82131C19.5176 7.60519 18.5318 6.61964 17.316 6.61964C7.76808 6.62023 0 14.3877 0 23.9362V117.448C0 117.61 0.01875 117.769 0.0521485 117.921C0.356251 121.972 2.10909 125.737 5.03849 128.594C8.16974 131.648 12.3032 133.33 16.6779 133.33H83.9548L71.2841 146.001C70.6545 146.631 70.4662 147.577 70.8069 148.4C71.1476 149.223 71.9506 149.759 72.841 149.759H147.799C149.014 149.759 150 148.774 150 147.558V72.6007C150 71.7104 149.464 70.9074 148.641 70.5666ZM119.368 5.32003C120.268 4.41944 121.735 4.41944 122.635 5.32003L129.477 12.1623C130.378 13.0626 130.378 14.5283 129.477 15.4289L125.114 19.7918L115.005 9.68293L119.368 5.32003ZM111.891 12.7966L122 22.9052L117.961 26.945L107.852 16.8364L111.891 12.7966ZM145.598 97.3396H141.536C140.319 97.3396 139.334 98.3252 139.334 99.5413C139.334 100.757 140.319 101.743 141.536 101.743H145.598V108.378H141.536C140.319 108.378 139.334 109.363 139.334 110.579C139.334 111.795 140.319 112.781 141.536 112.781H145.598V119.415H141.536C140.319 119.415 139.334 120.401 139.334 121.617C139.334 122.833 140.319 123.818 141.536 123.818H145.598V130.453H141.536C140.319 130.453 139.334 131.439 139.334 132.655C139.334 133.871 140.319 134.856 141.536 134.856H145.598V145.357H78.156L100.395 123.119C101.255 122.258 101.255 120.865 100.395 120.005C100.296 119.906 100.19 119.821 100.079 119.744C99.2217 119.157 98.0422 119.244 97.2808 120.005L88.3581 128.928H16.6782C10.0008 128.928 4.6254 123.714 4.41388 117.049C4.42647 116.631 4.45899 116.216 4.51114 115.806C4.51144 115.803 4.51173 115.801 4.51202 115.799C4.53663 115.604 4.56622 115.41 4.59991 115.217C4.60372 115.195 4.60782 115.173 4.61163 115.151C4.64239 114.979 4.67696 114.808 4.71476 114.638C4.7253 114.59 4.73644 114.543 4.74757 114.496C4.78097 114.351 4.817 114.208 4.85567 114.066C4.87677 113.988 4.89874 113.912 4.9213 113.835C4.95353 113.723 4.98692 113.611 5.02237 113.501C5.05782 113.39 5.09562 113.281 5.134 113.172C5.16066 113.095 5.18702 113.019 5.21573 112.943C5.26935 112.799 5.32618 112.656 5.38478 112.515C5.40148 112.474 5.41788 112.433 5.43517 112.392C5.51046 112.216 5.58868 112.042 5.6713 111.871C5.67482 111.863 5.67804 111.856 5.68155 111.849C7.40363 108.285 10.7156 105.628 14.6904 104.804C14.7015 104.801 14.7126 104.799 14.7238 104.796C14.906 104.759 15.09 104.727 15.2751 104.698C15.3059 104.693 15.3367 104.686 15.368 104.682C15.5353 104.656 15.7043 104.636 15.8734 104.617C15.9208 104.612 15.968 104.605 16.0158 104.6C16.1789 104.584 16.3436 104.573 16.5082 104.563C16.5604 104.559 16.6125 104.554 16.6647 104.551C16.8803 104.54 17.0977 104.535 17.316 104.535C18.5318 104.535 19.5176 103.549 19.5176 102.333V86.3694C19.5176 85.1533 18.5318 84.1677 17.316 84.1677C16.1001 84.1677 15.1143 85.1533 15.1143 86.3694V100.27C11.3965 100.74 7.94562 102.398 5.22452 105.056C4.93829 105.335 4.667 105.626 4.40274 105.921V23.9362C4.40274 17.5667 9.03928 12.259 15.114 11.2108V32.8041V77.563V77.5633C15.114 78.7792 16.0998 79.765 17.3157 79.765C18.5315 79.765 19.5173 78.7792 19.5173 77.5633V77.563V35.0057H83.455L71.2838 47.1768C70.424 48.037 70.424 49.4307 71.2838 50.2905C72.1437 51.1501 73.5377 51.1501 74.3972 50.2905L90.3268 34.3609C90.3274 34.3603 90.3277 34.3597 90.3283 34.3594L104.738 19.9497L114.846 30.0587L113.66 31.2446C113.66 31.2455 113.658 31.2463 113.657 31.2472L69.2644 75.6409L59.1558 65.5322L67.9062 56.7818C68.7661 55.9217 68.7661 54.528 67.9062 53.6682C67.0463 52.8086 65.6524 52.8086 64.7928 53.6682L54.4853 63.9754C54.4302 64.0305 54.3786 64.0888 54.3303 64.1486C54.3142 64.1685 54.2998 64.1899 54.2846 64.2107C54.2535 64.252 54.2231 64.2936 54.1946 64.3369C54.1785 64.3621 54.1639 64.3879 54.1486 64.414C54.1243 64.455 54.1009 64.4966 54.0795 64.5391C54.0654 64.5666 54.0528 64.5945 54.04 64.6232C54.0203 64.6662 54.0022 64.7102 53.9855 64.7541C53.9796 64.7697 53.972 64.7843 53.9664 64.7998L49.6771 76.9507L46.7526 85.2356C46.714 85.3458 46.6861 85.4577 46.6653 85.5705H39.3434C38.1276 85.5705 37.1418 86.556 37.1418 87.7721C37.1418 88.9883 38.1276 89.9738 39.3434 89.9738H100.314C101.531 89.9738 102.516 88.9883 102.516 87.7721C102.516 86.556 101.531 85.5705 100.314 85.5705H56.5703L69.9971 80.8308C70.0082 80.8267 70.0188 80.8212 70.0299 80.8171C70.0821 80.7977 70.1333 80.776 70.184 80.7529C70.2042 80.7435 70.2245 80.7347 70.2441 80.7251C70.2968 80.6987 70.3487 80.6697 70.3997 80.6386C70.4161 80.6287 70.4331 80.6196 70.4492 80.6093C70.5022 80.5753 70.5538 80.5381 70.6044 80.4989C70.617 80.4892 70.6302 80.4807 70.6425 80.4708C70.7038 80.4215 70.7638 80.3685 70.8206 80.3117L116.127 35.006H135.244V82.0411L103.751 113.534C102.891 114.395 102.891 115.788 103.751 116.648C103.805 116.702 103.861 116.752 103.919 116.799C104.322 117.128 104.815 117.293 105.308 117.293C105.801 117.293 106.294 117.128 106.698 116.799C106.755 116.752 106.811 116.702 106.865 116.648C106.866 116.647 106.865 116.648 106.866 116.647L145.598 77.9152V97.3396ZM65.2375 77.8408L58.9311 80.067L54.7293 75.8653L56.9556 69.5588L65.2375 77.8408Z" fill="url(#paint4_linear_18_575)" fill-opacity="0.2"/>
<path d="M148.641 70.5666C147.819 70.2256 146.872 70.414 146.242 71.0436L139.648 77.6375V32.8041C139.648 31.588 138.662 30.6024 137.446 30.6024H120.53L126.671 24.4618C126.671 24.4609 126.672 24.4597 126.673 24.4588L132.59 18.542C133.858 17.2743 134.556 15.588 134.556 13.795C134.556 12.0021 133.858 10.3163 132.59 9.04806L125.748 2.20606C124.48 0.93838 122.794 0.240234 121.001 0.240234C119.208 0.240234 117.522 0.93838 116.254 2.20606L110.334 8.1258L103.181 15.2789L87.858 30.6021H19.5176V8.82131C19.5176 7.60519 18.5318 6.61964 17.316 6.61964C7.76808 6.62023 0 14.3877 0 23.9362V117.448C0 117.61 0.01875 117.769 0.0521485 117.921C0.356251 121.972 2.10909 125.737 5.03849 128.594C8.16974 131.648 12.3032 133.33 16.6779 133.33H83.9548L71.2841 146.001C70.6545 146.631 70.4662 147.577 70.8069 148.4C71.1476 149.223 71.9506 149.759 72.841 149.759H147.799C149.014 149.759 150 148.774 150 147.558V72.6007C150 71.7104 149.464 70.9074 148.641 70.5666ZM119.368 5.32003C120.268 4.41944 121.735 4.41944 122.635 5.32003L129.477 12.1623C130.378 13.0626 130.378 14.5283 129.477 15.4289L125.114 19.7918L115.005 9.68293L119.368 5.32003ZM111.891 12.7966L122 22.9052L117.961 26.945L107.852 16.8364L111.891 12.7966ZM145.598 97.3396H141.536C140.319 97.3396 139.334 98.3252 139.334 99.5413C139.334 100.757 140.319 101.743 141.536 101.743H145.598V108.378H141.536C140.319 108.378 139.334 109.363 139.334 110.579C139.334 111.795 140.319 112.781 141.536 112.781H145.598V119.415H141.536C140.319 119.415 139.334 120.401 139.334 121.617C139.334 122.833 140.319 123.818 141.536 123.818H145.598V130.453H141.536C140.319 130.453 139.334 131.439 139.334 132.655C139.334 133.871 140.319 134.856 141.536 134.856H145.598V145.357H78.156L100.395 123.119C101.255 122.258 101.255 120.865 100.395 120.005C100.296 119.906 100.19 119.821 100.079 119.744C99.2217 119.157 98.0422 119.244 97.2808 120.005L88.3581 128.928H16.6782C10.0008 128.928 4.6254 123.714 4.41388 117.049C4.42647 116.631 4.45899 116.216 4.51114 115.806C4.51144 115.803 4.51173 115.801 4.51202 115.799C4.53663 115.604 4.56622 115.41 4.59991 115.217C4.60372 115.195 4.60782 115.173 4.61163 115.151C4.64239 114.979 4.67696 114.808 4.71476 114.638C4.7253 114.59 4.73644 114.543 4.74757 114.496C4.78097 114.351 4.817 114.208 4.85567 114.066C4.87677 113.988 4.89874 113.912 4.9213 113.835C4.95353 113.723 4.98692 113.611 5.02237 113.501C5.05782 113.39 5.09562 113.281 5.134 113.172C5.16066 113.095 5.18702 113.019 5.21573 112.943C5.26935 112.799 5.32618 112.656 5.38478 112.515C5.40148 112.474 5.41788 112.433 5.43517 112.392C5.51046 112.216 5.58868 112.042 5.6713 111.871C5.67482 111.863 5.67804 111.856 5.68155 111.849C7.40363 108.285 10.7156 105.628 14.6904 104.804C14.7015 104.801 14.7126 104.799 14.7238 104.796C14.906 104.759 15.09 104.727 15.2751 104.698C15.3059 104.693 15.3367 104.686 15.368 104.682C15.5353 104.656 15.7043 104.636 15.8734 104.617C15.9208 104.612 15.968 104.605 16.0158 104.6C16.1789 104.584 16.3436 104.573 16.5082 104.563C16.5604 104.559 16.6125 104.554 16.6647 104.551C16.8803 104.54 17.0977 104.535 17.316 104.535C18.5318 104.535 19.5176 103.549 19.5176 102.333V86.3694C19.5176 85.1533 18.5318 84.1677 17.316 84.1677C16.1001 84.1677 15.1143 85.1533 15.1143 86.3694V100.27C11.3965 100.74 7.94562 102.398 5.22452 105.056C4.93829 105.335 4.667 105.626 4.40274 105.921V23.9362C4.40274 17.5667 9.03928 12.259 15.114 11.2108V32.8041V77.563V77.5633C15.114 78.7792 16.0998 79.765 17.3157 79.765C18.5315 79.765 19.5173 78.7792 19.5173 77.5633V77.563V35.0057H83.455L71.2838 47.1768C70.424 48.037 70.424 49.4307 71.2838 50.2905C72.1437 51.1501 73.5377 51.1501 74.3972 50.2905L90.3268 34.3609C90.3274 34.3603 90.3277 34.3597 90.3283 34.3594L104.738 19.9497L114.846 30.0587L113.66 31.2446C113.66 31.2455 113.658 31.2463 113.657 31.2472L69.2644 75.6409L59.1558 65.5322L67.9062 56.7818C68.7661 55.9217 68.7661 54.528 67.9062 53.6682C67.0463 52.8086 65.6524 52.8086 64.7928 53.6682L54.4853 63.9754C54.4302 64.0305 54.3786 64.0888 54.3303 64.1486C54.3142 64.1685 54.2998 64.1899 54.2846 64.2107C54.2535 64.252 54.2231 64.2936 54.1946 64.3369C54.1785 64.3621 54.1639 64.3879 54.1486 64.414C54.1243 64.455 54.1009 64.4966 54.0795 64.5391C54.0654 64.5666 54.0528 64.5945 54.04 64.6232C54.0203 64.6662 54.0022 64.7102 53.9855 64.7541C53.9796 64.7697 53.972 64.7843 53.9664 64.7998L49.6771 76.9507L46.7526 85.2356C46.714 85.3458 46.6861 85.4577 46.6653 85.5705H39.3434C38.1276 85.5705 37.1418 86.556 37.1418 87.7721C37.1418 88.9883 38.1276 89.9738 39.3434 89.9738H100.314C101.531 89.9738 102.516 88.9883 102.516 87.7721C102.516 86.556 101.531 85.5705 100.314 85.5705H56.5703L69.9971 80.8308C70.0082 80.8267 70.0188 80.8212 70.0299 80.8171C70.0821 80.7977 70.1333 80.776 70.184 80.7529C70.2042 80.7435 70.2245 80.7347 70.2441 80.7251C70.2968 80.6987 70.3487 80.6697 70.3997 80.6386C70.4161 80.6287 70.4331 80.6196 70.4492 80.6093C70.5022 80.5753 70.5538 80.5381 70.6044 80.4989C70.617 80.4892 70.6302 80.4807 70.6425 80.4708C70.7038 80.4215 70.7638 80.3685 70.8206 80.3117L116.127 35.006H135.244V82.0411L103.751 113.534C102.891 114.395 102.891 115.788 103.751 116.648C103.805 116.702 103.861 116.752 103.919 116.799C104.322 117.128 104.815 117.293 105.308 117.293C105.801 117.293 106.294 117.128 106.698 116.799C106.755 116.752 106.811 116.702 106.865 116.648C106.866 116.647 106.865 116.648 106.866 116.647L145.598 77.9152V97.3396ZM65.2375 77.8408L58.9311 80.067L54.7293 75.8653L56.9556 69.5588L65.2375 77.8408Z" fill="url(#paint5_radial_18_575)" fill-opacity="0.2"/>
</g>
<defs>
<linearGradient id="paint0_linear_18_575" x1="132.548" y1="108.667" x2="113.547" y2="114.885" gradientUnits="userSpaceOnUse">
<stop stop-color="white"/>
<stop offset="1" stop-color="white" stop-opacity="0"/>
</linearGradient>
<linearGradient id="paint1_linear_18_575" x1="132.681" y1="132.497" x2="119.823" y2="132.768" gradientUnits="userSpaceOnUse">
<stop stop-color="white"/>
<stop offset="1" stop-color="white" stop-opacity="0"/>
</linearGradient>
<radialGradient id="paint2_radial_18_575" cx="0" cy="0" r="1" gradientUnits="userSpaceOnUse" gradientTransform="translate(119.852 119.92) rotate(90) scale(14.2318 14.232)">
<stop stop-color="#1C560D"/>
<stop offset="1" stop-opacity="0"/>
</radialGradient>
<linearGradient id="paint3_linear_18_575" x1="141.902" y1="15.8876" x2="41.8348" y2="48.7403" gradientUnits="userSpaceOnUse">
<stop stop-color="white"/>
<stop offset="1" stop-color="white" stop-opacity="0"/>
</linearGradient>
<linearGradient id="paint4_linear_18_575" x1="142.606" y1="141.066" x2="74.8469" y2="142.496" gradientUnits="userSpaceOnUse">
<stop stop-color="white"/>
<stop offset="1" stop-color="white" stop-opacity="0"/>
</linearGradient>
<radialGradient id="paint5_radial_18_575" cx="0" cy="0" r="1" gradientUnits="userSpaceOnUse" gradientTransform="translate(75.0002 74.9999) rotate(90) scale(74.7596 75.0002)">
<stop stop-color="#1C560D"/>
<stop offset="1" stop-opacity="0"/>
</radialGradient>
<clipPath id="clip0_18_575">
<rect width="150" height="150" fill="white"/>
</clipPath>
</defs>
</svg>
