<svg width="150" height="150" viewBox="0 0 150 150" fill="none" xmlns="http://www.w3.org/2000/svg">
<path d="M140.323 99.1935V85.9863C140.323 50.221 111.842 20.3395 76.8339 19.379C59.0008 18.9024 42.1984 25.4516 29.4508 37.8556C16.6984 50.2597 9.67742 66.8879 9.67742 84.6774V99.1935H0V112.873L9.12823 116.865C30.0242 126.01 52.1855 130.645 75 130.645C97.8145 130.645 119.976 126.01 140.872 116.867L150 112.873V99.1935H140.323ZM119.574 44.4556C117.312 53.5355 116.129 62.8621 116.129 72.2153V79.8387H106.452V67.6064C106.452 57.1524 108.271 46.9185 111.832 37.1323C114.617 39.3411 117.201 41.7992 119.574 44.4556ZM76.7008 24.2177C79.3815 24.2903 82.0161 24.5661 84.6024 24.9944L80.0323 79.8387H69.9677L65.3927 24.9484C69.0895 24.3629 72.871 24.104 76.7008 24.2177ZM32.8234 41.325C34.4879 39.704 36.2347 38.204 38.0419 36.8032C41.6831 46.6863 43.5484 57.029 43.5484 67.6064V79.8387H33.871V72.2153C33.871 62.6806 32.6468 53.1847 30.2952 43.95C31.1129 43.0573 31.9476 42.1766 32.8234 41.325ZM145.161 109.708L138.934 112.435C118.652 121.309 97.1419 125.806 75 125.806C52.8581 125.806 31.3476 121.309 11.0661 112.435L4.83871 109.708V104.032H12.0968H14.5161H120.968V99.1935H14.5161V84.6774C14.5161 71.4871 18.6968 58.9911 26.4194 48.6363C28.1202 56.3782 29.0323 64.2823 29.0323 72.2153V84.6774H48.3871V67.6064C48.3871 56.0129 46.2581 44.6855 42.1113 33.8927C47.804 30.1839 54.046 27.496 60.6194 25.9016L65.5161 84.6774H84.4839L89.3734 25.9887C95.9928 27.6653 102.196 30.4718 107.775 34.1952C103.703 44.9008 101.613 56.1242 101.613 67.6064V84.6774H120.968V72.2153C120.968 64.4927 121.829 56.7895 123.445 49.2363C130.991 59.5597 135.484 72.3048 135.484 85.9863V99.1935H125.806V104.032H135.484H137.903H145.161V109.708Z" fill="#482728"/>
<path d="M140.323 99.1935V85.9863C140.323 50.221 111.842 20.3395 76.8339 19.379C59.0008 18.9024 42.1984 25.4516 29.4508 37.8556C16.6984 50.2597 9.67742 66.8879 9.67742 84.6774V99.1935H0V112.873L9.12823 116.865C30.0242 126.01 52.1855 130.645 75 130.645C97.8145 130.645 119.976 126.01 140.872 116.867L150 112.873V99.1935H140.323ZM119.574 44.4556C117.312 53.5355 116.129 62.8621 116.129 72.2153V79.8387H106.452V67.6064C106.452 57.1524 108.271 46.9185 111.832 37.1323C114.617 39.3411 117.201 41.7992 119.574 44.4556ZM76.7008 24.2177C79.3815 24.2903 82.0161 24.5661 84.6024 24.9944L80.0323 79.8387H69.9677L65.3927 24.9484C69.0895 24.3629 72.871 24.104 76.7008 24.2177ZM32.8234 41.325C34.4879 39.704 36.2347 38.204 38.0419 36.8032C41.6831 46.6863 43.5484 57.029 43.5484 67.6064V79.8387H33.871V72.2153C33.871 62.6806 32.6468 53.1847 30.2952 43.95C31.1129 43.0573 31.9476 42.1766 32.8234 41.325ZM145.161 109.708L138.934 112.435C118.652 121.309 97.1419 125.806 75 125.806C52.8581 125.806 31.3476 121.309 11.0661 112.435L4.83871 109.708V104.032H12.0968H14.5161H120.968V99.1935H14.5161V84.6774C14.5161 71.4871 18.6968 58.9911 26.4194 48.6363C28.1202 56.3782 29.0323 64.2823 29.0323 72.2153V84.6774H48.3871V67.6064C48.3871 56.0129 46.2581 44.6855 42.1113 33.8927C47.804 30.1839 54.046 27.496 60.6194 25.9016L65.5161 84.6774H84.4839L89.3734 25.9887C95.9928 27.6653 102.196 30.4718 107.775 34.1952C103.703 44.9008 101.613 56.1242 101.613 67.6064V84.6774H120.968V72.2153C120.968 64.4927 121.829 56.7895 123.445 49.2363C130.991 59.5597 135.484 72.3048 135.484 85.9863V99.1935H125.806V104.032H135.484H137.903H145.161V109.708Z" fill="url(#paint0_linear_18_520)" fill-opacity="0.2"/>
<path d="M140.323 99.1935V85.9863C140.323 50.221 111.842 20.3395 76.8339 19.379C59.0008 18.9024 42.1984 25.4516 29.4508 37.8556C16.6984 50.2597 9.67742 66.8879 9.67742 84.6774V99.1935H0V112.873L9.12823 116.865C30.0242 126.01 52.1855 130.645 75 130.645C97.8145 130.645 119.976 126.01 140.872 116.867L150 112.873V99.1935H140.323ZM119.574 44.4556C117.312 53.5355 116.129 62.8621 116.129 72.2153V79.8387H106.452V67.6064C106.452 57.1524 108.271 46.9185 111.832 37.1323C114.617 39.3411 117.201 41.7992 119.574 44.4556ZM76.7008 24.2177C79.3815 24.2903 82.0161 24.5661 84.6024 24.9944L80.0323 79.8387H69.9677L65.3927 24.9484C69.0895 24.3629 72.871 24.104 76.7008 24.2177ZM32.8234 41.325C34.4879 39.704 36.2347 38.204 38.0419 36.8032C41.6831 46.6863 43.5484 57.029 43.5484 67.6064V79.8387H33.871V72.2153C33.871 62.6806 32.6468 53.1847 30.2952 43.95C31.1129 43.0573 31.9476 42.1766 32.8234 41.325ZM145.161 109.708L138.934 112.435C118.652 121.309 97.1419 125.806 75 125.806C52.8581 125.806 31.3476 121.309 11.0661 112.435L4.83871 109.708V104.032H12.0968H14.5161H120.968V99.1935H14.5161V84.6774C14.5161 71.4871 18.6968 58.9911 26.4194 48.6363C28.1202 56.3782 29.0323 64.2823 29.0323 72.2153V84.6774H48.3871V67.6064C48.3871 56.0129 46.2581 44.6855 42.1113 33.8927C47.804 30.1839 54.046 27.496 60.6194 25.9016L65.5161 84.6774H84.4839L89.3734 25.9887C95.9928 27.6653 102.196 30.4718 107.775 34.1952C103.703 44.9008 101.613 56.1242 101.613 67.6064V84.6774H120.968V72.2153C120.968 64.4927 121.829 56.7895 123.445 49.2363C130.991 59.5597 135.484 72.3048 135.484 85.9863V99.1935H125.806V104.032H135.484H137.903H145.161V109.708Z" fill="url(#paint1_linear_18_520)" fill-opacity="0.2"/>
<path d="M140.323 99.1935V85.9863C140.323 50.221 111.842 20.3395 76.8339 19.379C59.0008 18.9024 42.1984 25.4516 29.4508 37.8556C16.6984 50.2597 9.67742 66.8879 9.67742 84.6774V99.1935H0V112.873L9.12823 116.865C30.0242 126.01 52.1855 130.645 75 130.645C97.8145 130.645 119.976 126.01 140.872 116.867L150 112.873V99.1935H140.323ZM119.574 44.4556C117.312 53.5355 116.129 62.8621 116.129 72.2153V79.8387H106.452V67.6064C106.452 57.1524 108.271 46.9185 111.832 37.1323C114.617 39.3411 117.201 41.7992 119.574 44.4556ZM76.7008 24.2177C79.3815 24.2903 82.0161 24.5661 84.6024 24.9944L80.0323 79.8387H69.9677L65.3927 24.9484C69.0895 24.3629 72.871 24.104 76.7008 24.2177ZM32.8234 41.325C34.4879 39.704 36.2347 38.204 38.0419 36.8032C41.6831 46.6863 43.5484 57.029 43.5484 67.6064V79.8387H33.871V72.2153C33.871 62.6806 32.6468 53.1847 30.2952 43.95C31.1129 43.0573 31.9476 42.1766 32.8234 41.325ZM145.161 109.708L138.934 112.435C118.652 121.309 97.1419 125.806 75 125.806C52.8581 125.806 31.3476 121.309 11.0661 112.435L4.83871 109.708V104.032H12.0968H14.5161H120.968V99.1935H14.5161V84.6774C14.5161 71.4871 18.6968 58.9911 26.4194 48.6363C28.1202 56.3782 29.0323 64.2823 29.0323 72.2153V84.6774H48.3871V67.6064C48.3871 56.0129 46.2581 44.6855 42.1113 33.8927C47.804 30.1839 54.046 27.496 60.6194 25.9016L65.5161 84.6774H84.4839L89.3734 25.9887C95.9928 27.6653 102.196 30.4718 107.775 34.1952C103.703 44.9008 101.613 56.1242 101.613 67.6064V84.6774H120.968V72.2153C120.968 64.4927 121.829 56.7895 123.445 49.2363C130.991 59.5597 135.484 72.3048 135.484 85.9863V99.1935H125.806V104.032H135.484H137.903H145.161V109.708Z" fill="url(#paint2_radial_18_520)" fill-opacity="0.2"/>
<defs>
<linearGradient id="paint0_linear_18_520" x1="141.901" y1="31.0014" x2="49.1031" y2="71.9331" gradientUnits="userSpaceOnUse">
<stop stop-color="white"/>
<stop offset="1" stop-color="white" stop-opacity="0"/>
</linearGradient>
<linearGradient id="paint1_linear_18_520" x1="142.606" y1="124.175" x2="74.871" y2="126.095" gradientUnits="userSpaceOnUse">
<stop stop-color="white"/>
<stop offset="1" stop-color="white" stop-opacity="0"/>
</linearGradient>
<radialGradient id="paint2_radial_18_520" cx="0" cy="0" r="1" gradientUnits="userSpaceOnUse" gradientTransform="translate(75 74.9999) rotate(90) scale(55.6452 75)">
<stop stop-color="#1C560D"/>
<stop offset="1" stop-opacity="0"/>
</radialGradient>
</defs>
</svg>
