<svg width="150" height="150" viewBox="0 0 150 150" fill="none" xmlns="http://www.w3.org/2000/svg">
<path d="M65.4023 77.5342H45.4512C44.9941 77.5342 44.5547 77.7129 44.2266 78.0293L18.4248 103.072L19.9131 79.4004C19.9424 78.917 19.7725 78.4394 19.4414 78.0879C19.1103 77.7334 18.6445 77.5342 18.1611 77.5342H16.5205C11.0039 77.5342 6.51562 73.0459 6.51562 67.5293V30.7178C6.51562 25.2012 11.0039 20.7129 16.5205 20.7129H95.1035C100.62 20.7129 105.108 25.2012 105.108 30.7178V38.168C105.108 39.1377 105.896 39.9258 106.866 39.9258C107.836 39.9258 108.624 39.1377 108.624 38.168V30.7178C108.624 23.2617 102.56 17.1973 95.1035 17.1973H16.5176C9.06152 17.1973 2.99707 23.2617 2.99707 30.7178V67.5293C2.99707 74.9062 8.93555 80.9238 16.2861 81.0469L14.6279 107.391C14.5811 108.114 14.9883 108.794 15.6475 109.099C15.8818 109.207 16.1338 109.26 16.3828 109.26C16.8311 109.26 17.2734 109.09 17.6074 108.765L46.1631 81.0498H65.4023C66.3721 81.0498 67.1602 80.2617 67.1602 79.292C67.1602 78.3223 66.3721 77.5342 65.4023 77.5342Z" fill="#482728"/>
<path d="M65.4023 77.5342H45.4512C44.9941 77.5342 44.5547 77.7129 44.2266 78.0293L18.4248 103.072L19.9131 79.4004C19.9424 78.917 19.7725 78.4394 19.4414 78.0879C19.1103 77.7334 18.6445 77.5342 18.1611 77.5342H16.5205C11.0039 77.5342 6.51562 73.0459 6.51562 67.5293V30.7178C6.51562 25.2012 11.0039 20.7129 16.5205 20.7129H95.1035C100.62 20.7129 105.108 25.2012 105.108 30.7178V38.168C105.108 39.1377 105.896 39.9258 106.866 39.9258C107.836 39.9258 108.624 39.1377 108.624 38.168V30.7178C108.624 23.2617 102.56 17.1973 95.1035 17.1973H16.5176C9.06152 17.1973 2.99707 23.2617 2.99707 30.7178V67.5293C2.99707 74.9062 8.93555 80.9238 16.2861 81.0469L14.6279 107.391C14.5811 108.114 14.9883 108.794 15.6475 109.099C15.8818 109.207 16.1338 109.26 16.3828 109.26C16.8311 109.26 17.2734 109.09 17.6074 108.765L46.1631 81.0498H65.4023C66.3721 81.0498 67.1602 80.2617 67.1602 79.292C67.1602 78.3223 66.3721 77.5342 65.4023 77.5342Z" fill="url(#paint0_linear_18_608)" fill-opacity="0.2"/>
<path d="M65.4023 77.5342H45.4512C44.9941 77.5342 44.5547 77.7129 44.2266 78.0293L18.4248 103.072L19.9131 79.4004C19.9424 78.917 19.7725 78.4394 19.4414 78.0879C19.1103 77.7334 18.6445 77.5342 18.1611 77.5342H16.5205C11.0039 77.5342 6.51562 73.0459 6.51562 67.5293V30.7178C6.51562 25.2012 11.0039 20.7129 16.5205 20.7129H95.1035C100.62 20.7129 105.108 25.2012 105.108 30.7178V38.168C105.108 39.1377 105.896 39.9258 106.866 39.9258C107.836 39.9258 108.624 39.1377 108.624 38.168V30.7178C108.624 23.2617 102.56 17.1973 95.1035 17.1973H16.5176C9.06152 17.1973 2.99707 23.2617 2.99707 30.7178V67.5293C2.99707 74.9062 8.93555 80.9238 16.2861 81.0469L14.6279 107.391C14.5811 108.114 14.9883 108.794 15.6475 109.099C15.8818 109.207 16.1338 109.26 16.3828 109.26C16.8311 109.26 17.2734 109.09 17.6074 108.765L46.1631 81.0498H65.4023C66.3721 81.0498 67.1602 80.2617 67.1602 79.292C67.1602 78.3223 66.3721 77.5342 65.4023 77.5342Z" fill="url(#paint1_linear_18_608)" fill-opacity="0.2"/>
<path d="M65.4023 77.5342H45.4512C44.9941 77.5342 44.5547 77.7129 44.2266 78.0293L18.4248 103.072L19.9131 79.4004C19.9424 78.917 19.7725 78.4394 19.4414 78.0879C19.1103 77.7334 18.6445 77.5342 18.1611 77.5342H16.5205C11.0039 77.5342 6.51562 73.0459 6.51562 67.5293V30.7178C6.51562 25.2012 11.0039 20.7129 16.5205 20.7129H95.1035C100.62 20.7129 105.108 25.2012 105.108 30.7178V38.168C105.108 39.1377 105.896 39.9258 106.866 39.9258C107.836 39.9258 108.624 39.1377 108.624 38.168V30.7178C108.624 23.2617 102.56 17.1973 95.1035 17.1973H16.5176C9.06152 17.1973 2.99707 23.2617 2.99707 30.7178V67.5293C2.99707 74.9062 8.93555 80.9238 16.2861 81.0469L14.6279 107.391C14.5811 108.114 14.9883 108.794 15.6475 109.099C15.8818 109.207 16.1338 109.26 16.3828 109.26C16.8311 109.26 17.2734 109.09 17.6074 108.765L46.1631 81.0498H65.4023C66.3721 81.0498 67.1602 80.2617 67.1602 79.292C67.1602 78.3223 66.3721 77.5342 65.4023 77.5342Z" fill="url(#paint2_radial_18_608)" fill-opacity="0.2"/>
<path d="M78.4541 34.5469C78.4541 33.5771 77.666 32.7891 76.6963 32.7891H21.4658C20.4961 32.7891 19.708 33.5771 19.708 34.5469C19.708 35.5166 20.4961 36.3047 21.4658 36.3047H76.6963C77.6689 36.3047 78.4541 35.5166 78.4541 34.5469Z" fill="#482728"/>
<path d="M78.4541 34.5469C78.4541 33.5771 77.666 32.7891 76.6963 32.7891H21.4658C20.4961 32.7891 19.708 33.5771 19.708 34.5469C19.708 35.5166 20.4961 36.3047 21.4658 36.3047H76.6963C77.6689 36.3047 78.4541 35.5166 78.4541 34.5469Z" fill="url(#paint3_linear_18_608)" fill-opacity="0.2"/>
<path d="M78.4541 34.5469C78.4541 33.5771 77.666 32.7891 76.6963 32.7891H21.4658C20.4961 32.7891 19.708 33.5771 19.708 34.5469C19.708 35.5166 20.4961 36.3047 21.4658 36.3047H76.6963C77.6689 36.3047 78.4541 35.5166 78.4541 34.5469Z" fill="url(#paint4_linear_18_608)" fill-opacity="0.2"/>
<path d="M78.4541 34.5469C78.4541 33.5771 77.666 32.7891 76.6963 32.7891H21.4658C20.4961 32.7891 19.708 33.5771 19.708 34.5469C19.708 35.5166 20.4961 36.3047 21.4658 36.3047H76.6963C77.6689 36.3047 78.4541 35.5166 78.4541 34.5469Z" fill="url(#paint5_radial_18_608)" fill-opacity="0.2"/>
<path d="M53.4902 50.877C54.46 50.877 55.2481 50.0889 55.2481 49.1191C55.2481 48.1494 54.46 47.3613 53.4902 47.3613H21.4658C20.4961 47.3613 19.708 48.1494 19.708 49.1191C19.708 50.0889 20.4961 50.877 21.4658 50.877H53.4902Z" fill="#482728"/>
<path d="M53.4902 50.877C54.46 50.877 55.2481 50.0889 55.2481 49.1191C55.2481 48.1494 54.46 47.3613 53.4902 47.3613H21.4658C20.4961 47.3613 19.708 48.1494 19.708 49.1191C19.708 50.0889 20.4961 50.877 21.4658 50.877H53.4902Z" fill="url(#paint6_linear_18_608)" fill-opacity="0.2"/>
<path d="M53.4902 50.877C54.46 50.877 55.2481 50.0889 55.2481 49.1191C55.2481 48.1494 54.46 47.3613 53.4902 47.3613H21.4658C20.4961 47.3613 19.708 48.1494 19.708 49.1191C19.708 50.0889 20.4961 50.877 21.4658 50.877H53.4902Z" fill="url(#paint7_linear_18_608)" fill-opacity="0.2"/>
<path d="M53.4902 50.877C54.46 50.877 55.2481 50.0889 55.2481 49.1191C55.2481 48.1494 54.46 47.3613 53.4902 47.3613H21.4658C20.4961 47.3613 19.708 48.1494 19.708 49.1191C19.708 50.0889 20.4961 50.877 21.4658 50.877H53.4902Z" fill="url(#paint8_radial_18_608)" fill-opacity="0.2"/>
<path d="M21.9229 65.4463H62.7656C63.7354 65.4463 64.5234 64.6582 64.5234 63.6885C64.5234 62.7188 63.7354 61.9307 62.7656 61.9307H21.9229C20.9531 61.9307 20.165 62.7188 20.165 63.6885C20.165 64.6582 20.9531 65.4463 21.9229 65.4463Z" fill="#482728"/>
<path d="M21.9229 65.4463H62.7656C63.7354 65.4463 64.5234 64.6582 64.5234 63.6885C64.5234 62.7188 63.7354 61.9307 62.7656 61.9307H21.9229C20.9531 61.9307 20.165 62.7188 20.165 63.6885C20.165 64.6582 20.9531 65.4463 21.9229 65.4463Z" fill="url(#paint9_linear_18_608)" fill-opacity="0.2"/>
<path d="M21.9229 65.4463H62.7656C63.7354 65.4463 64.5234 64.6582 64.5234 63.6885C64.5234 62.7188 63.7354 61.9307 62.7656 61.9307H21.9229C20.9531 61.9307 20.165 62.7188 20.165 63.6885C20.165 64.6582 20.9531 65.4463 21.9229 65.4463Z" fill="url(#paint10_linear_18_608)" fill-opacity="0.2"/>
<path d="M21.9229 65.4463H62.7656C63.7354 65.4463 64.5234 64.6582 64.5234 63.6885C64.5234 62.7188 63.7354 61.9307 62.7656 61.9307H21.9229C20.9531 61.9307 20.165 62.7188 20.165 63.6885C20.165 64.6582 20.9531 65.4463 21.9229 65.4463Z" fill="url(#paint11_radial_18_608)" fill-opacity="0.2"/>
<path d="M146.959 85.79C147.422 65.3935 130.854 45.2051 109.72 45.5098C88.6582 45.4424 72 64.4912 72.4072 87.0146C72.4072 89.8769 74.7334 92.2031 77.5957 92.2031H78.5449C78.7705 94.3096 79.541 96.334 80.7744 98.0098C81.7031 99.2666 82.9014 100.301 84.2373 100.998C85.5937 101.707 87.1084 102.085 88.623 102.085C90.3135 102.085 91.9307 101.206 93.0557 99.6738C94.084 98.2793 94.6494 96.4541 94.6494 94.5322V79.7695C94.6494 75.5361 92.001 72.2197 88.623 72.2197C87.1142 72.2197 85.5996 72.5947 84.2431 73.3008C82.8779 74.0127 81.7119 75.0176 80.7744 76.292C79.6553 77.8125 78.917 79.626 78.624 81.5273H77.5986C77.1181 81.5273 76.6553 81.5976 76.2129 81.7207C78.0762 63.3574 92.3935 49.0254 109.726 49.0254C127.233 49.0254 141.662 63.6474 143.291 82.2773C142.863 82.1631 142.418 82.0986 141.958 82.0986H141.009C140.783 79.9863 140.013 77.9619 138.782 76.292C137.859 75.0381 136.661 74.0039 135.316 73.3008C133.963 72.5918 132.448 72.2197 130.934 72.2197C129.243 72.2197 127.626 73.0986 126.501 74.6308C125.473 76.0254 124.907 77.8506 124.907 79.7695V94.5322C124.907 98.7685 127.556 102.085 130.934 102.085C132.451 102.085 133.966 101.71 135.316 101.001C136.658 100.301 137.856 99.2666 138.782 98.0127C139.901 96.4951 140.643 94.6816 140.936 92.7773H141.961C142.397 92.7773 142.825 92.7217 143.235 92.6162C141.68 107.549 131.748 120.229 118.307 124.078C117.337 122.402 115.529 121.269 113.458 121.269H106.107C103.02 121.269 100.506 123.782 100.506 126.87V127.204C100.506 130.292 103.02 132.806 106.107 132.806H113.458C116.437 132.806 118.875 130.465 119.042 127.523C126.688 125.388 133.6 120.604 138.621 113.927C144.686 105.932 147.375 95.751 146.959 85.79ZM83.6045 78.3779C84.2226 77.54 84.9814 76.8808 85.8662 76.418C86.7363 75.9639 87.6621 75.7353 88.623 75.7353C89.8096 75.7353 91.1338 77.3935 91.1338 79.7695V94.5322C91.1338 95.6924 90.8027 96.8056 90.2226 97.5908C89.9531 97.957 89.3877 98.5693 88.623 98.5693C87.6621 98.5693 86.7363 98.3379 85.8662 97.8838C84.999 97.4297 84.2139 96.7529 83.6045 95.9238C82.5644 94.5088 81.9902 92.7275 81.9902 90.9082V90.4453V83.3848C81.9931 83.3584 81.9932 83.3291 81.9932 83.3027C82.0078 81.5156 82.582 79.7666 83.6045 78.3779ZM77.5957 85.043H78.4746V88.6875H77.5957C76.6728 88.6875 75.9228 87.9375 75.9228 87.0146V86.7158C75.9228 85.793 76.6728 85.043 77.5957 85.043ZM115.532 127.201C115.532 128.35 114.598 129.287 113.446 129.287H106.096C104.947 129.287 104.01 128.353 104.01 127.201V126.867C104.01 125.719 104.944 124.781 106.096 124.781H113.446C114.595 124.781 115.532 125.716 115.532 126.867V127.201ZM135.943 95.9238C135.334 96.75 134.549 97.4297 133.676 97.8867C132.826 98.3349 131.874 98.5693 130.925 98.5693C129.738 98.5693 128.414 96.9111 128.414 94.5322V79.7695C128.414 78.6123 128.745 77.499 129.325 76.7139C129.595 76.3476 130.16 75.7353 130.925 75.7353C131.874 75.7353 132.826 75.9697 133.679 76.418C134.552 76.875 135.337 77.5517 135.943 78.3779C136.983 79.79 137.558 81.5713 137.558 83.3935V83.8564V90.917C137.555 90.9433 137.555 90.9726 137.555 90.999C137.537 92.792 136.966 94.5381 135.943 95.9238ZM141.952 89.2588H141.073V85.6143H141.952C142.875 85.6143 143.625 86.3642 143.625 87.2871C143.692 88.2685 143.024 89.2851 141.952 89.2588Z" fill="#482728"/>
<path d="M146.959 85.79C147.422 65.3935 130.854 45.2051 109.72 45.5098C88.6582 45.4424 72 64.4912 72.4072 87.0146C72.4072 89.8769 74.7334 92.2031 77.5957 92.2031H78.5449C78.7705 94.3096 79.541 96.334 80.7744 98.0098C81.7031 99.2666 82.9014 100.301 84.2373 100.998C85.5937 101.707 87.1084 102.085 88.623 102.085C90.3135 102.085 91.9307 101.206 93.0557 99.6738C94.084 98.2793 94.6494 96.4541 94.6494 94.5322V79.7695C94.6494 75.5361 92.001 72.2197 88.623 72.2197C87.1142 72.2197 85.5996 72.5947 84.2431 73.3008C82.8779 74.0127 81.7119 75.0176 80.7744 76.292C79.6553 77.8125 78.917 79.626 78.624 81.5273H77.5986C77.1181 81.5273 76.6553 81.5976 76.2129 81.7207C78.0762 63.3574 92.3935 49.0254 109.726 49.0254C127.233 49.0254 141.662 63.6474 143.291 82.2773C142.863 82.1631 142.418 82.0986 141.958 82.0986H141.009C140.783 79.9863 140.013 77.9619 138.782 76.292C137.859 75.0381 136.661 74.0039 135.316 73.3008C133.963 72.5918 132.448 72.2197 130.934 72.2197C129.243 72.2197 127.626 73.0986 126.501 74.6308C125.473 76.0254 124.907 77.8506 124.907 79.7695V94.5322C124.907 98.7685 127.556 102.085 130.934 102.085C132.451 102.085 133.966 101.71 135.316 101.001C136.658 100.301 137.856 99.2666 138.782 98.0127C139.901 96.4951 140.643 94.6816 140.936 92.7773H141.961C142.397 92.7773 142.825 92.7217 143.235 92.6162C141.68 107.549 131.748 120.229 118.307 124.078C117.337 122.402 115.529 121.269 113.458 121.269H106.107C103.02 121.269 100.506 123.782 100.506 126.87V127.204C100.506 130.292 103.02 132.806 106.107 132.806H113.458C116.437 132.806 118.875 130.465 119.042 127.523C126.688 125.388 133.6 120.604 138.621 113.927C144.686 105.932 147.375 95.751 146.959 85.79ZM83.6045 78.3779C84.2226 77.54 84.9814 76.8808 85.8662 76.418C86.7363 75.9639 87.6621 75.7353 88.623 75.7353C89.8096 75.7353 91.1338 77.3935 91.1338 79.7695V94.5322C91.1338 95.6924 90.8027 96.8056 90.2226 97.5908C89.9531 97.957 89.3877 98.5693 88.623 98.5693C87.6621 98.5693 86.7363 98.3379 85.8662 97.8838C84.999 97.4297 84.2139 96.7529 83.6045 95.9238C82.5644 94.5088 81.9902 92.7275 81.9902 90.9082V90.4453V83.3848C81.9931 83.3584 81.9932 83.3291 81.9932 83.3027C82.0078 81.5156 82.582 79.7666 83.6045 78.3779ZM77.5957 85.043H78.4746V88.6875H77.5957C76.6728 88.6875 75.9228 87.9375 75.9228 87.0146V86.7158C75.9228 85.793 76.6728 85.043 77.5957 85.043ZM115.532 127.201C115.532 128.35 114.598 129.287 113.446 129.287H106.096C104.947 129.287 104.01 128.353 104.01 127.201V126.867C104.01 125.719 104.944 124.781 106.096 124.781H113.446C114.595 124.781 115.532 125.716 115.532 126.867V127.201ZM135.943 95.9238C135.334 96.75 134.549 97.4297 133.676 97.8867C132.826 98.3349 131.874 98.5693 130.925 98.5693C129.738 98.5693 128.414 96.9111 128.414 94.5322V79.7695C128.414 78.6123 128.745 77.499 129.325 76.7139C129.595 76.3476 130.16 75.7353 130.925 75.7353C131.874 75.7353 132.826 75.9697 133.679 76.418C134.552 76.875 135.337 77.5517 135.943 78.3779C136.983 79.79 137.558 81.5713 137.558 83.3935V83.8564V90.917C137.555 90.9433 137.555 90.9726 137.555 90.999C137.537 92.792 136.966 94.5381 135.943 95.9238ZM141.952 89.2588H141.073V85.6143H141.952C142.875 85.6143 143.625 86.3642 143.625 87.2871C143.692 88.2685 143.024 89.2851 141.952 89.2588Z" fill="url(#paint12_linear_18_608)" fill-opacity="0.2"/>
<path d="M146.959 85.79C147.422 65.3935 130.854 45.2051 109.72 45.5098C88.6582 45.4424 72 64.4912 72.4072 87.0146C72.4072 89.8769 74.7334 92.2031 77.5957 92.2031H78.5449C78.7705 94.3096 79.541 96.334 80.7744 98.0098C81.7031 99.2666 82.9014 100.301 84.2373 100.998C85.5937 101.707 87.1084 102.085 88.623 102.085C90.3135 102.085 91.9307 101.206 93.0557 99.6738C94.084 98.2793 94.6494 96.4541 94.6494 94.5322V79.7695C94.6494 75.5361 92.001 72.2197 88.623 72.2197C87.1142 72.2197 85.5996 72.5947 84.2431 73.3008C82.8779 74.0127 81.7119 75.0176 80.7744 76.292C79.6553 77.8125 78.917 79.626 78.624 81.5273H77.5986C77.1181 81.5273 76.6553 81.5976 76.2129 81.7207C78.0762 63.3574 92.3935 49.0254 109.726 49.0254C127.233 49.0254 141.662 63.6474 143.291 82.2773C142.863 82.1631 142.418 82.0986 141.958 82.0986H141.009C140.783 79.9863 140.013 77.9619 138.782 76.292C137.859 75.0381 136.661 74.0039 135.316 73.3008C133.963 72.5918 132.448 72.2197 130.934 72.2197C129.243 72.2197 127.626 73.0986 126.501 74.6308C125.473 76.0254 124.907 77.8506 124.907 79.7695V94.5322C124.907 98.7685 127.556 102.085 130.934 102.085C132.451 102.085 133.966 101.71 135.316 101.001C136.658 100.301 137.856 99.2666 138.782 98.0127C139.901 96.4951 140.643 94.6816 140.936 92.7773H141.961C142.397 92.7773 142.825 92.7217 143.235 92.6162C141.68 107.549 131.748 120.229 118.307 124.078C117.337 122.402 115.529 121.269 113.458 121.269H106.107C103.02 121.269 100.506 123.782 100.506 126.87V127.204C100.506 130.292 103.02 132.806 106.107 132.806H113.458C116.437 132.806 118.875 130.465 119.042 127.523C126.688 125.388 133.6 120.604 138.621 113.927C144.686 105.932 147.375 95.751 146.959 85.79ZM83.6045 78.3779C84.2226 77.54 84.9814 76.8808 85.8662 76.418C86.7363 75.9639 87.6621 75.7353 88.623 75.7353C89.8096 75.7353 91.1338 77.3935 91.1338 79.7695V94.5322C91.1338 95.6924 90.8027 96.8056 90.2226 97.5908C89.9531 97.957 89.3877 98.5693 88.623 98.5693C87.6621 98.5693 86.7363 98.3379 85.8662 97.8838C84.999 97.4297 84.2139 96.7529 83.6045 95.9238C82.5644 94.5088 81.9902 92.7275 81.9902 90.9082V90.4453V83.3848C81.9931 83.3584 81.9932 83.3291 81.9932 83.3027C82.0078 81.5156 82.582 79.7666 83.6045 78.3779ZM77.5957 85.043H78.4746V88.6875H77.5957C76.6728 88.6875 75.9228 87.9375 75.9228 87.0146V86.7158C75.9228 85.793 76.6728 85.043 77.5957 85.043ZM115.532 127.201C115.532 128.35 114.598 129.287 113.446 129.287H106.096C104.947 129.287 104.01 128.353 104.01 127.201V126.867C104.01 125.719 104.944 124.781 106.096 124.781H113.446C114.595 124.781 115.532 125.716 115.532 126.867V127.201ZM135.943 95.9238C135.334 96.75 134.549 97.4297 133.676 97.8867C132.826 98.3349 131.874 98.5693 130.925 98.5693C129.738 98.5693 128.414 96.9111 128.414 94.5322V79.7695C128.414 78.6123 128.745 77.499 129.325 76.7139C129.595 76.3476 130.16 75.7353 130.925 75.7353C131.874 75.7353 132.826 75.9697 133.679 76.418C134.552 76.875 135.337 77.5517 135.943 78.3779C136.983 79.79 137.558 81.5713 137.558 83.3935V83.8564V90.917C137.555 90.9433 137.555 90.9726 137.555 90.999C137.537 92.792 136.966 94.5381 135.943 95.9238ZM141.952 89.2588H141.073V85.6143H141.952C142.875 85.6143 143.625 86.3642 143.625 87.2871C143.692 88.2685 143.024 89.2851 141.952 89.2588Z" fill="url(#paint13_linear_18_608)" fill-opacity="0.2"/>
<path d="M146.959 85.79C147.422 65.3935 130.854 45.2051 109.72 45.5098C88.6582 45.4424 72 64.4912 72.4072 87.0146C72.4072 89.8769 74.7334 92.2031 77.5957 92.2031H78.5449C78.7705 94.3096 79.541 96.334 80.7744 98.0098C81.7031 99.2666 82.9014 100.301 84.2373 100.998C85.5937 101.707 87.1084 102.085 88.623 102.085C90.3135 102.085 91.9307 101.206 93.0557 99.6738C94.084 98.2793 94.6494 96.4541 94.6494 94.5322V79.7695C94.6494 75.5361 92.001 72.2197 88.623 72.2197C87.1142 72.2197 85.5996 72.5947 84.2431 73.3008C82.8779 74.0127 81.7119 75.0176 80.7744 76.292C79.6553 77.8125 78.917 79.626 78.624 81.5273H77.5986C77.1181 81.5273 76.6553 81.5976 76.2129 81.7207C78.0762 63.3574 92.3935 49.0254 109.726 49.0254C127.233 49.0254 141.662 63.6474 143.291 82.2773C142.863 82.1631 142.418 82.0986 141.958 82.0986H141.009C140.783 79.9863 140.013 77.9619 138.782 76.292C137.859 75.0381 136.661 74.0039 135.316 73.3008C133.963 72.5918 132.448 72.2197 130.934 72.2197C129.243 72.2197 127.626 73.0986 126.501 74.6308C125.473 76.0254 124.907 77.8506 124.907 79.7695V94.5322C124.907 98.7685 127.556 102.085 130.934 102.085C132.451 102.085 133.966 101.71 135.316 101.001C136.658 100.301 137.856 99.2666 138.782 98.0127C139.901 96.4951 140.643 94.6816 140.936 92.7773H141.961C142.397 92.7773 142.825 92.7217 143.235 92.6162C141.68 107.549 131.748 120.229 118.307 124.078C117.337 122.402 115.529 121.269 113.458 121.269H106.107C103.02 121.269 100.506 123.782 100.506 126.87V127.204C100.506 130.292 103.02 132.806 106.107 132.806H113.458C116.437 132.806 118.875 130.465 119.042 127.523C126.688 125.388 133.6 120.604 138.621 113.927C144.686 105.932 147.375 95.751 146.959 85.79ZM83.6045 78.3779C84.2226 77.54 84.9814 76.8808 85.8662 76.418C86.7363 75.9639 87.6621 75.7353 88.623 75.7353C89.8096 75.7353 91.1338 77.3935 91.1338 79.7695V94.5322C91.1338 95.6924 90.8027 96.8056 90.2226 97.5908C89.9531 97.957 89.3877 98.5693 88.623 98.5693C87.6621 98.5693 86.7363 98.3379 85.8662 97.8838C84.999 97.4297 84.2139 96.7529 83.6045 95.9238C82.5644 94.5088 81.9902 92.7275 81.9902 90.9082V90.4453V83.3848C81.9931 83.3584 81.9932 83.3291 81.9932 83.3027C82.0078 81.5156 82.582 79.7666 83.6045 78.3779ZM77.5957 85.043H78.4746V88.6875H77.5957C76.6728 88.6875 75.9228 87.9375 75.9228 87.0146V86.7158C75.9228 85.793 76.6728 85.043 77.5957 85.043ZM115.532 127.201C115.532 128.35 114.598 129.287 113.446 129.287H106.096C104.947 129.287 104.01 128.353 104.01 127.201V126.867C104.01 125.719 104.944 124.781 106.096 124.781H113.446C114.595 124.781 115.532 125.716 115.532 126.867V127.201ZM135.943 95.9238C135.334 96.75 134.549 97.4297 133.676 97.8867C132.826 98.3349 131.874 98.5693 130.925 98.5693C129.738 98.5693 128.414 96.9111 128.414 94.5322V79.7695C128.414 78.6123 128.745 77.499 129.325 76.7139C129.595 76.3476 130.16 75.7353 130.925 75.7353C131.874 75.7353 132.826 75.9697 133.679 76.418C134.552 76.875 135.337 77.5517 135.943 78.3779C136.983 79.79 137.558 81.5713 137.558 83.3935V83.8564V90.917C137.555 90.9433 137.555 90.9726 137.555 90.999C137.537 92.792 136.966 94.5381 135.943 95.9238ZM141.952 89.2588H141.073V85.6143H141.952C142.875 85.6143 143.625 86.3642 143.625 87.2871C143.692 88.2685 143.024 89.2851 141.952 89.2588Z" fill="url(#paint14_radial_18_608)" fill-opacity="0.2"/>
<defs>
<linearGradient id="paint0_linear_18_608" x1="102.921" y1="26.8317" x2="34.5062" y2="52.5196" gradientUnits="userSpaceOnUse">
<stop stop-color="white"/>
<stop offset="1" stop-color="white" stop-opacity="0"/>
</linearGradient>
<linearGradient id="paint1_linear_18_608" x1="103.417" y1="103.907" x2="55.7092" y2="105.058" gradientUnits="userSpaceOnUse">
<stop stop-color="white"/>
<stop offset="1" stop-color="white" stop-opacity="0"/>
</linearGradient>
<radialGradient id="paint2_radial_18_608" cx="0" cy="0" r="1" gradientUnits="userSpaceOnUse" gradientTransform="translate(55.8105 63.2285) rotate(90) scale(46.0312 52.8135)">
<stop stop-color="#1C560D"/>
<stop offset="1" stop-opacity="0"/>
</radialGradient>
<linearGradient id="paint3_linear_18_608" x1="75.2824" y1="33.157" x2="73.8775" y2="40.8392" gradientUnits="userSpaceOnUse">
<stop stop-color="white"/>
<stop offset="1" stop-color="white" stop-opacity="0"/>
</linearGradient>
<linearGradient id="paint4_linear_18_608" x1="75.5582" y1="36.1003" x2="51.9271" y2="44.4041" gradientUnits="userSpaceOnUse">
<stop stop-color="white"/>
<stop offset="1" stop-color="white" stop-opacity="0"/>
</linearGradient>
<radialGradient id="paint5_radial_18_608" cx="0" cy="0" r="1" gradientUnits="userSpaceOnUse" gradientTransform="translate(49.0811 34.5469) rotate(90) scale(1.75781 29.3731)">
<stop stop-color="#1C560D"/>
<stop offset="1" stop-opacity="0"/>
</radialGradient>
<linearGradient id="paint6_linear_18_608" x1="53.3292" y1="47.7292" x2="51.1304" y2="55.0037" gradientUnits="userSpaceOnUse">
<stop stop-color="white"/>
<stop offset="1" stop-color="white" stop-opacity="0"/>
</linearGradient>
<linearGradient id="paint7_linear_18_608" x1="53.4961" y1="50.6726" x2="38.1291" y2="53.9394" gradientUnits="userSpaceOnUse">
<stop stop-color="white"/>
<stop offset="1" stop-color="white" stop-opacity="0"/>
</linearGradient>
<radialGradient id="paint8_radial_18_608" cx="0" cy="0" r="1" gradientUnits="userSpaceOnUse" gradientTransform="translate(37.478 49.1191) rotate(90) scale(1.75781 17.77)">
<stop stop-color="#1C560D"/>
<stop offset="1" stop-opacity="0"/>
</radialGradient>
<linearGradient id="paint9_linear_18_608" x1="62.1285" y1="62.2986" x2="60.3123" y2="69.7978" gradientUnits="userSpaceOnUse">
<stop stop-color="white"/>
<stop offset="1" stop-color="white" stop-opacity="0"/>
</linearGradient>
<linearGradient id="paint10_linear_18_608" x1="62.3368" y1="65.2419" x2="43.6085" y2="70.2111" gradientUnits="userSpaceOnUse">
<stop stop-color="white"/>
<stop offset="1" stop-color="white" stop-opacity="0"/>
</linearGradient>
<radialGradient id="paint11_radial_18_608" cx="0" cy="0" r="1" gradientUnits="userSpaceOnUse" gradientTransform="translate(42.3442 63.6885) rotate(90) scale(1.75781 22.1792)">
<stop stop-color="#1C560D"/>
<stop offset="1" stop-opacity="0"/>
</radialGradient>
<linearGradient id="paint12_linear_18_608" x1="142.973" y1="54.6423" x2="91.8406" y2="68.9416" gradientUnits="userSpaceOnUse">
<stop stop-color="white"/>
<stop offset="1" stop-color="white" stop-opacity="0"/>
</linearGradient>
<linearGradient id="paint13_linear_18_608" x1="143.323" y1="127.73" x2="109.62" y2="128.336" gradientUnits="userSpaceOnUse">
<stop stop-color="white"/>
<stop offset="1" stop-color="white" stop-opacity="0"/>
</linearGradient>
<radialGradient id="paint14_radial_18_608" cx="0" cy="0" r="1" gradientUnits="userSpaceOnUse" gradientTransform="translate(109.7 89.156) rotate(90) scale(43.6497 37.3004)">
<stop stop-color="#1C560D"/>
<stop offset="1" stop-opacity="0"/>
</radialGradient>
</defs>
</svg>
