<svg width="150" height="150" viewBox="0 0 150 150" fill="none" xmlns="http://www.w3.org/2000/svg">
<path d="M26.906 101.002C22.4347 101.002 18.7972 104.639 18.7972 109.11C18.7972 113.582 22.4347 117.22 26.906 117.22C31.3773 117.22 35.0147 113.582 35.0147 109.11C35.0147 104.639 31.3773 101.002 26.906 101.002ZM26.906 112.362C25.1135 112.362 23.6549 110.904 23.6549 109.111C23.6549 107.318 25.1135 105.86 26.906 105.86C28.6985 105.86 30.1571 107.318 30.1571 109.111C30.1571 110.904 28.6985 112.362 26.906 112.362Z" fill="#482728"/>
<path d="M26.906 101.002C22.4347 101.002 18.7972 104.639 18.7972 109.11C18.7972 113.582 22.4347 117.22 26.906 117.22C31.3773 117.22 35.0147 113.582 35.0147 109.11C35.0147 104.639 31.3773 101.002 26.906 101.002ZM26.906 112.362C25.1135 112.362 23.6549 110.904 23.6549 109.111C23.6549 107.318 25.1135 105.86 26.906 105.86C28.6985 105.86 30.1571 107.318 30.1571 109.111C30.1571 110.904 28.6985 112.362 26.906 112.362Z" fill="url(#paint0_linear_18_615)" fill-opacity="0.2"/>
<path d="M26.906 101.002C22.4347 101.002 18.7972 104.639 18.7972 109.11C18.7972 113.582 22.4347 117.22 26.906 117.22C31.3773 117.22 35.0147 113.582 35.0147 109.11C35.0147 104.639 31.3773 101.002 26.906 101.002ZM26.906 112.362C25.1135 112.362 23.6549 110.904 23.6549 109.111C23.6549 107.318 25.1135 105.86 26.906 105.86C28.6985 105.86 30.1571 107.318 30.1571 109.111C30.1571 110.904 28.6985 112.362 26.906 112.362Z" fill="url(#paint1_linear_18_615)" fill-opacity="0.2"/>
<path d="M26.906 101.002C22.4347 101.002 18.7972 104.639 18.7972 109.11C18.7972 113.582 22.4347 117.22 26.906 117.22C31.3773 117.22 35.0147 113.582 35.0147 109.11C35.0147 104.639 31.3773 101.002 26.906 101.002ZM26.906 112.362C25.1135 112.362 23.6549 110.904 23.6549 109.111C23.6549 107.318 25.1135 105.86 26.906 105.86C28.6985 105.86 30.1571 107.318 30.1571 109.111C30.1571 110.904 28.6985 112.362 26.906 112.362Z" fill="url(#paint2_radial_18_615)" fill-opacity="0.2"/>
<path d="M123.375 101.002C118.904 101.002 115.266 104.639 115.266 109.11C115.266 113.582 118.904 117.22 123.375 117.22C127.846 117.22 131.484 113.582 131.484 109.11C131.484 104.639 127.846 101.002 123.375 101.002ZM123.375 112.362C121.583 112.362 120.124 110.904 120.124 109.111C120.124 107.318 121.583 105.86 123.375 105.86C125.168 105.86 126.626 107.318 126.626 109.111C126.626 110.904 125.168 112.362 123.375 112.362Z" fill="#482728"/>
<path d="M123.375 101.002C118.904 101.002 115.266 104.639 115.266 109.11C115.266 113.582 118.904 117.22 123.375 117.22C127.846 117.22 131.484 113.582 131.484 109.11C131.484 104.639 127.846 101.002 123.375 101.002ZM123.375 112.362C121.583 112.362 120.124 110.904 120.124 109.111C120.124 107.318 121.583 105.86 123.375 105.86C125.168 105.86 126.626 107.318 126.626 109.111C126.626 110.904 125.168 112.362 123.375 112.362Z" fill="url(#paint3_linear_18_615)" fill-opacity="0.2"/>
<path d="M123.375 101.002C118.904 101.002 115.266 104.639 115.266 109.11C115.266 113.582 118.904 117.22 123.375 117.22C127.846 117.22 131.484 113.582 131.484 109.11C131.484 104.639 127.846 101.002 123.375 101.002ZM123.375 112.362C121.583 112.362 120.124 110.904 120.124 109.111C120.124 107.318 121.583 105.86 123.375 105.86C125.168 105.86 126.626 107.318 126.626 109.111C126.626 110.904 125.168 112.362 123.375 112.362Z" fill="url(#paint4_linear_18_615)" fill-opacity="0.2"/>
<path d="M123.375 101.002C118.904 101.002 115.266 104.639 115.266 109.11C115.266 113.582 118.904 117.22 123.375 117.22C127.846 117.22 131.484 113.582 131.484 109.11C131.484 104.639 127.846 101.002 123.375 101.002ZM123.375 112.362C121.583 112.362 120.124 110.904 120.124 109.111C120.124 107.318 121.583 105.86 123.375 105.86C125.168 105.86 126.626 107.318 126.626 109.111C126.626 110.904 125.168 112.362 123.375 112.362Z" fill="url(#paint5_radial_18_615)" fill-opacity="0.2"/>
<path d="M149.822 71.1234L138.015 41.979C137.644 41.0618 136.753 40.4621 135.764 40.4621H95.9325V27.0426C95.9325 25.7012 94.8454 24.6138 93.5037 24.6138H2.42883C1.08715 24.6138 0 25.7012 0 27.0426V110.012C0 111.353 1.08715 112.44 2.42883 112.44H10.9748C12.5159 119.823 19.0732 125.386 26.906 125.386C34.7388 125.386 41.296 119.823 42.8369 112.44L107.444 112.44C108.984 119.822 115.542 125.386 123.375 125.386C131.208 125.386 137.765 119.823 139.306 112.44H147.571C148.913 112.44 150 111.353 150 110.011V72.0353C150 71.7231 149.939 71.4135 149.822 71.1234ZM10.705 107.583H4.85767V105.468H11.047C10.8886 106.158 10.772 106.863 10.705 107.583ZM26.906 120.528C20.6104 120.528 15.4885 115.406 15.4885 109.11C15.4885 102.815 20.6101 97.6932 26.906 97.6932C33.2012 97.6932 38.3231 102.815 38.3231 109.11C38.3231 115.406 33.2012 120.528 26.906 120.528ZM91.0748 107.582H43.1066C42.3336 99.3225 35.3645 92.8352 26.906 92.8352C21.0454 92.8352 15.8998 95.95 13.0338 100.61H4.85767V29.4714H91.0748V107.582ZM123.375 120.528C117.08 120.528 111.958 115.406 111.958 109.11C111.958 102.815 117.079 97.6932 123.375 97.6932C129.67 97.6932 134.792 102.815 134.792 109.11C134.792 115.406 129.67 120.528 123.375 120.528ZM145.142 107.582H139.576C139.508 106.863 139.392 106.158 139.234 105.468H145.142V107.582ZM145.142 100.611H137.247C134.381 95.9506 129.236 92.8359 123.375 92.8359C114.917 92.8359 107.947 99.3228 107.174 107.583H95.9332V45.3204H134.127L145.142 72.5094V100.611Z" fill="#482728"/>
<path d="M149.822 71.1234L138.015 41.979C137.644 41.0618 136.753 40.4621 135.764 40.4621H95.9325V27.0426C95.9325 25.7012 94.8454 24.6138 93.5037 24.6138H2.42883C1.08715 24.6138 0 25.7012 0 27.0426V110.012C0 111.353 1.08715 112.44 2.42883 112.44H10.9748C12.5159 119.823 19.0732 125.386 26.906 125.386C34.7388 125.386 41.296 119.823 42.8369 112.44L107.444 112.44C108.984 119.822 115.542 125.386 123.375 125.386C131.208 125.386 137.765 119.823 139.306 112.44H147.571C148.913 112.44 150 111.353 150 110.011V72.0353C150 71.7231 149.939 71.4135 149.822 71.1234ZM10.705 107.583H4.85767V105.468H11.047C10.8886 106.158 10.772 106.863 10.705 107.583ZM26.906 120.528C20.6104 120.528 15.4885 115.406 15.4885 109.11C15.4885 102.815 20.6101 97.6932 26.906 97.6932C33.2012 97.6932 38.3231 102.815 38.3231 109.11C38.3231 115.406 33.2012 120.528 26.906 120.528ZM91.0748 107.582H43.1066C42.3336 99.3225 35.3645 92.8352 26.906 92.8352C21.0454 92.8352 15.8998 95.95 13.0338 100.61H4.85767V29.4714H91.0748V107.582ZM123.375 120.528C117.08 120.528 111.958 115.406 111.958 109.11C111.958 102.815 117.079 97.6932 123.375 97.6932C129.67 97.6932 134.792 102.815 134.792 109.11C134.792 115.406 129.67 120.528 123.375 120.528ZM145.142 107.582H139.576C139.508 106.863 139.392 106.158 139.234 105.468H145.142V107.582ZM145.142 100.611H137.247C134.381 95.9506 129.236 92.8359 123.375 92.8359C114.917 92.8359 107.947 99.3228 107.174 107.583H95.9332V45.3204H134.127L145.142 72.5094V100.611Z" fill="url(#paint6_linear_18_615)" fill-opacity="0.2"/>
<path d="M149.822 71.1234L138.015 41.979C137.644 41.0618 136.753 40.4621 135.764 40.4621H95.9325V27.0426C95.9325 25.7012 94.8454 24.6138 93.5037 24.6138H2.42883C1.08715 24.6138 0 25.7012 0 27.0426V110.012C0 111.353 1.08715 112.44 2.42883 112.44H10.9748C12.5159 119.823 19.0732 125.386 26.906 125.386C34.7388 125.386 41.296 119.823 42.8369 112.44L107.444 112.44C108.984 119.822 115.542 125.386 123.375 125.386C131.208 125.386 137.765 119.823 139.306 112.44H147.571C148.913 112.44 150 111.353 150 110.011V72.0353C150 71.7231 149.939 71.4135 149.822 71.1234ZM10.705 107.583H4.85767V105.468H11.047C10.8886 106.158 10.772 106.863 10.705 107.583ZM26.906 120.528C20.6104 120.528 15.4885 115.406 15.4885 109.11C15.4885 102.815 20.6101 97.6932 26.906 97.6932C33.2012 97.6932 38.3231 102.815 38.3231 109.11C38.3231 115.406 33.2012 120.528 26.906 120.528ZM91.0748 107.582H43.1066C42.3336 99.3225 35.3645 92.8352 26.906 92.8352C21.0454 92.8352 15.8998 95.95 13.0338 100.61H4.85767V29.4714H91.0748V107.582ZM123.375 120.528C117.08 120.528 111.958 115.406 111.958 109.11C111.958 102.815 117.079 97.6932 123.375 97.6932C129.67 97.6932 134.792 102.815 134.792 109.11C134.792 115.406 129.67 120.528 123.375 120.528ZM145.142 107.582H139.576C139.508 106.863 139.392 106.158 139.234 105.468H145.142V107.582ZM145.142 100.611H137.247C134.381 95.9506 129.236 92.8359 123.375 92.8359C114.917 92.8359 107.947 99.3228 107.174 107.583H95.9332V45.3204H134.127L145.142 72.5094V100.611Z" fill="url(#paint7_linear_18_615)" fill-opacity="0.2"/>
<path d="M149.822 71.1234L138.015 41.979C137.644 41.0618 136.753 40.4621 135.764 40.4621H95.9325V27.0426C95.9325 25.7012 94.8454 24.6138 93.5037 24.6138H2.42883C1.08715 24.6138 0 25.7012 0 27.0426V110.012C0 111.353 1.08715 112.44 2.42883 112.44H10.9748C12.5159 119.823 19.0732 125.386 26.906 125.386C34.7388 125.386 41.296 119.823 42.8369 112.44L107.444 112.44C108.984 119.822 115.542 125.386 123.375 125.386C131.208 125.386 137.765 119.823 139.306 112.44H147.571C148.913 112.44 150 111.353 150 110.011V72.0353C150 71.7231 149.939 71.4135 149.822 71.1234ZM10.705 107.583H4.85767V105.468H11.047C10.8886 106.158 10.772 106.863 10.705 107.583ZM26.906 120.528C20.6104 120.528 15.4885 115.406 15.4885 109.11C15.4885 102.815 20.6101 97.6932 26.906 97.6932C33.2012 97.6932 38.3231 102.815 38.3231 109.11C38.3231 115.406 33.2012 120.528 26.906 120.528ZM91.0748 107.582H43.1066C42.3336 99.3225 35.3645 92.8352 26.906 92.8352C21.0454 92.8352 15.8998 95.95 13.0338 100.61H4.85767V29.4714H91.0748V107.582ZM123.375 120.528C117.08 120.528 111.958 115.406 111.958 109.11C111.958 102.815 117.079 97.6932 123.375 97.6932C129.67 97.6932 134.792 102.815 134.792 109.11C134.792 115.406 129.67 120.528 123.375 120.528ZM145.142 107.582H139.576C139.508 106.863 139.392 106.158 139.234 105.468H145.142V107.582ZM145.142 100.611H137.247C134.381 95.9506 129.236 92.8359 123.375 92.8359C114.917 92.8359 107.947 99.3228 107.174 107.583H95.9332V45.3204H134.127L145.142 72.5094V100.611Z" fill="url(#paint8_radial_18_615)" fill-opacity="0.2"/>
<path d="M130.963 47.5874H100.628C99.2866 47.5874 98.1995 48.6749 98.1995 50.0162V73.4237C98.1995 74.7651 99.2866 75.8526 100.628 75.8526H140.445C141.253 75.8526 142.008 75.451 142.459 74.781C142.911 74.1113 142.999 73.2605 142.696 72.5118L133.214 49.1043C132.843 48.1872 131.952 47.5874 130.963 47.5874ZM103.057 70.9946V52.4447H129.326L136.841 70.9946H103.057Z" fill="#482728"/>
<path d="M130.963 47.5874H100.628C99.2866 47.5874 98.1995 48.6749 98.1995 50.0162V73.4237C98.1995 74.7651 99.2866 75.8526 100.628 75.8526H140.445C141.253 75.8526 142.008 75.451 142.459 74.781C142.911 74.1113 142.999 73.2605 142.696 72.5118L133.214 49.1043C132.843 48.1872 131.952 47.5874 130.963 47.5874ZM103.057 70.9946V52.4447H129.326L136.841 70.9946H103.057Z" fill="url(#paint9_linear_18_615)" fill-opacity="0.2"/>
<path d="M130.963 47.5874H100.628C99.2866 47.5874 98.1995 48.6749 98.1995 50.0162V73.4237C98.1995 74.7651 99.2866 75.8526 100.628 75.8526H140.445C141.253 75.8526 142.008 75.451 142.459 74.781C142.911 74.1113 142.999 73.2605 142.696 72.5118L133.214 49.1043C132.843 48.1872 131.952 47.5874 130.963 47.5874ZM103.057 70.9946V52.4447H129.326L136.841 70.9946H103.057Z" fill="url(#paint10_linear_18_615)" fill-opacity="0.2"/>
<path d="M130.963 47.5874H100.628C99.2866 47.5874 98.1995 48.6749 98.1995 50.0162V73.4237C98.1995 74.7651 99.2866 75.8526 100.628 75.8526H140.445C141.253 75.8526 142.008 75.451 142.459 74.781C142.911 74.1113 142.999 73.2605 142.696 72.5118L133.214 49.1043C132.843 48.1872 131.952 47.5874 130.963 47.5874ZM103.057 70.9946V52.4447H129.326L136.841 70.9946H103.057Z" fill="url(#paint11_radial_18_615)" fill-opacity="0.2"/>
<path d="M140.445 83.4624C139.104 83.4624 138.016 84.5499 138.016 85.8912V92.0281C138.016 93.3695 139.104 94.4569 140.445 94.4569C141.787 94.4569 142.874 93.3695 142.874 92.0281V85.8912C142.874 84.5502 141.787 83.4624 140.445 83.4624Z" fill="#482728"/>
<path d="M140.445 83.4624C139.104 83.4624 138.016 84.5499 138.016 85.8912V92.0281C138.016 93.3695 139.104 94.4569 140.445 94.4569C141.787 94.4569 142.874 93.3695 142.874 92.0281V85.8912C142.874 84.5502 141.787 83.4624 140.445 83.4624Z" fill="url(#paint12_linear_18_615)" fill-opacity="0.2"/>
<path d="M140.445 83.4624C139.104 83.4624 138.016 84.5499 138.016 85.8912V92.0281C138.016 93.3695 139.104 94.4569 140.445 94.4569C141.787 94.4569 142.874 93.3695 142.874 92.0281V85.8912C142.874 84.5502 141.787 83.4624 140.445 83.4624Z" fill="url(#paint13_linear_18_615)" fill-opacity="0.2"/>
<path d="M140.445 83.4624C139.104 83.4624 138.016 84.5499 138.016 85.8912V92.0281C138.016 93.3695 139.104 94.4569 140.445 94.4569C141.787 94.4569 142.874 93.3695 142.874 92.0281V85.8912C142.874 84.5502 141.787 83.4624 140.445 83.4624Z" fill="url(#paint14_radial_18_615)" fill-opacity="0.2"/>
<path d="M9.64478 38.9717H86.2878C87.6295 38.9717 88.7166 37.8842 88.7166 36.5428C88.7166 35.2015 87.6295 34.114 86.2878 34.114H9.64478C8.30309 34.114 7.21594 35.2015 7.21594 36.5428C7.21594 37.8845 8.30341 38.9717 9.64478 38.9717Z" fill="#482728"/>
<path d="M9.64478 38.9717H86.2878C87.6295 38.9717 88.7166 37.8842 88.7166 36.5428C88.7166 35.2015 87.6295 34.114 86.2878 34.114H9.64478C8.30309 34.114 7.21594 35.2015 7.21594 36.5428C7.21594 37.8845 8.30341 38.9717 9.64478 38.9717Z" fill="url(#paint15_linear_18_615)" fill-opacity="0.2"/>
<path d="M9.64478 38.9717H86.2878C87.6295 38.9717 88.7166 37.8842 88.7166 36.5428C88.7166 35.2015 87.6295 34.114 86.2878 34.114H9.64478C8.30309 34.114 7.21594 35.2015 7.21594 36.5428C7.21594 37.8845 8.30341 38.9717 9.64478 38.9717Z" fill="url(#paint16_linear_18_615)" fill-opacity="0.2"/>
<path d="M9.64478 38.9717H86.2878C87.6295 38.9717 88.7166 37.8842 88.7166 36.5428C88.7166 35.2015 87.6295 34.114 86.2878 34.114H9.64478C8.30309 34.114 7.21594 35.2015 7.21594 36.5428C7.21594 37.8845 8.30341 38.9717 9.64478 38.9717Z" fill="url(#paint17_radial_18_615)" fill-opacity="0.2"/>
<path d="M9.64478 54.6604H79.5052C80.8469 54.6604 81.934 53.5729 81.934 52.2316C81.934 50.8902 80.8469 49.8027 79.5052 49.8027H9.64478C8.30309 49.8027 7.21594 50.8902 7.21594 52.2316C7.21594 53.5726 8.30341 54.6604 9.64478 54.6604Z" fill="#482728"/>
<path d="M9.64478 54.6604H79.5052C80.8469 54.6604 81.934 53.5729 81.934 52.2316C81.934 50.8902 80.8469 49.8027 79.5052 49.8027H9.64478C8.30309 49.8027 7.21594 50.8902 7.21594 52.2316C7.21594 53.5726 8.30341 54.6604 9.64478 54.6604Z" fill="url(#paint18_linear_18_615)" fill-opacity="0.2"/>
<path d="M9.64478 54.6604H79.5052C80.8469 54.6604 81.934 53.5729 81.934 52.2316C81.934 50.8902 80.8469 49.8027 79.5052 49.8027H9.64478C8.30309 49.8027 7.21594 50.8902 7.21594 52.2316C7.21594 53.5726 8.30341 54.6604 9.64478 54.6604Z" fill="url(#paint19_linear_18_615)" fill-opacity="0.2"/>
<path d="M9.64478 54.6604H79.5052C80.8469 54.6604 81.934 53.5729 81.934 52.2316C81.934 50.8902 80.8469 49.8027 79.5052 49.8027H9.64478C8.30309 49.8027 7.21594 50.8902 7.21594 52.2316C7.21594 53.5726 8.30341 54.6604 9.64478 54.6604Z" fill="url(#paint20_radial_18_615)" fill-opacity="0.2"/>
<path d="M85.6984 49.8762C84.7521 50.1155 84.0338 50.9115 83.8855 51.8746C83.7382 52.8326 84.2103 53.819 85.0407 54.3135C85.9662 54.865 87.1803 54.7381 87.9608 53.99C88.8002 53.1852 88.9475 51.8759 88.3186 50.9005C88.3345 50.9241 88.3429 50.9358 88.3079 50.8824C88.2678 50.8238 88.2804 50.8435 88.2992 50.8717C87.725 50.0426 86.6835 49.6271 85.6984 49.8762Z" fill="#482728"/>
<path d="M85.6984 49.8762C84.7521 50.1155 84.0338 50.9115 83.8855 51.8746C83.7382 52.8326 84.2103 53.819 85.0407 54.3135C85.9662 54.865 87.1803 54.7381 87.9608 53.99C88.8002 53.1852 88.9475 51.8759 88.3186 50.9005C88.3345 50.9241 88.3429 50.9358 88.3079 50.8824C88.2678 50.8238 88.2804 50.8435 88.2992 50.8717C87.725 50.0426 86.6835 49.6271 85.6984 49.8762Z" fill="url(#paint21_linear_18_615)" fill-opacity="0.2"/>
<path d="M85.6984 49.8762C84.7521 50.1155 84.0338 50.9115 83.8855 51.8746C83.7382 52.8326 84.2103 53.819 85.0407 54.3135C85.9662 54.865 87.1803 54.7381 87.9608 53.99C88.8002 53.1852 88.9475 51.8759 88.3186 50.9005C88.3345 50.9241 88.3429 50.9358 88.3079 50.8824C88.2678 50.8238 88.2804 50.8435 88.2992 50.8717C87.725 50.0426 86.6835 49.6271 85.6984 49.8762Z" fill="url(#paint22_linear_18_615)" fill-opacity="0.2"/>
<path d="M85.6984 49.8762C84.7521 50.1155 84.0338 50.9115 83.8855 51.8746C83.7382 52.8326 84.2103 53.819 85.0407 54.3135C85.9662 54.865 87.1803 54.7381 87.9608 53.99C88.8002 53.1852 88.9475 51.8759 88.3186 50.9005C88.3345 50.9241 88.3429 50.9358 88.3079 50.8824C88.2678 50.8238 88.2804 50.8435 88.2992 50.8717C87.725 50.0426 86.6835 49.6271 85.6984 49.8762Z" fill="url(#paint23_radial_18_615)" fill-opacity="0.2"/>
<path d="M86.2877 81.1797H16.4276C15.0859 81.1797 13.9988 82.2672 13.9988 83.6085C13.9988 84.9499 15.0859 86.0374 16.4276 86.0374H86.288C87.6297 86.0374 88.7169 84.9499 88.7169 83.6085C88.7169 82.2675 87.6294 81.1797 86.2877 81.1797Z" fill="#482728"/>
<path d="M86.2877 81.1797H16.4276C15.0859 81.1797 13.9988 82.2672 13.9988 83.6085C13.9988 84.9499 15.0859 86.0374 16.4276 86.0374H86.288C87.6297 86.0374 88.7169 84.9499 88.7169 83.6085C88.7169 82.2675 87.6294 81.1797 86.2877 81.1797Z" fill="url(#paint24_linear_18_615)" fill-opacity="0.2"/>
<path d="M86.2877 81.1797H16.4276C15.0859 81.1797 13.9988 82.2672 13.9988 83.6085C13.9988 84.9499 15.0859 86.0374 16.4276 86.0374H86.288C87.6297 86.0374 88.7169 84.9499 88.7169 83.6085C88.7169 82.2675 87.6294 81.1797 86.2877 81.1797Z" fill="url(#paint25_linear_18_615)" fill-opacity="0.2"/>
<path d="M86.2877 81.1797H16.4276C15.0859 81.1797 13.9988 82.2672 13.9988 83.6085C13.9988 84.9499 15.0859 86.0374 16.4276 86.0374H86.288C87.6297 86.0374 88.7169 84.9499 88.7169 83.6085C88.7169 82.2675 87.6294 81.1797 86.2877 81.1797Z" fill="url(#paint26_radial_18_615)" fill-opacity="0.2"/>
<path d="M7.92645 81.8906C6.63949 83.2164 7.24313 85.5047 9.05407 85.9636C10.9476 86.4439 12.6484 84.481 11.8867 82.6808C11.2332 81.0943 9.14086 80.7099 7.92645 81.8906Z" fill="#482728"/>
<path d="M7.92645 81.8906C6.63949 83.2164 7.24313 85.5047 9.05407 85.9636C10.9476 86.4439 12.6484 84.481 11.8867 82.6808C11.2332 81.0943 9.14086 80.7099 7.92645 81.8906Z" fill="url(#paint27_linear_18_615)" fill-opacity="0.2"/>
<path d="M7.92645 81.8906C6.63949 83.2164 7.24313 85.5047 9.05407 85.9636C10.9476 86.4439 12.6484 84.481 11.8867 82.6808C11.2332 81.0943 9.14086 80.7099 7.92645 81.8906Z" fill="url(#paint28_linear_18_615)" fill-opacity="0.2"/>
<path d="M7.92645 81.8906C6.63949 83.2164 7.24313 85.5047 9.05407 85.9636C10.9476 86.4439 12.6484 84.481 11.8867 82.6808C11.2332 81.0943 9.14086 80.7099 7.92645 81.8906Z" fill="url(#paint29_radial_18_615)" fill-opacity="0.2"/>
<path d="M11.8867 82.6807C11.8255 82.532 11.9486 82.8264 11.8867 82.6807V82.6807Z" fill="#482728"/>
<path d="M11.8867 82.6807C11.8255 82.532 11.9486 82.8264 11.8867 82.6807V82.6807Z" fill="url(#paint30_linear_18_615)" fill-opacity="0.2"/>
<path d="M11.8867 82.6807C11.8255 82.532 11.9486 82.8264 11.8867 82.6807V82.6807Z" fill="url(#paint31_linear_18_615)" fill-opacity="0.2"/>
<path d="M11.8867 82.6807C11.8255 82.532 11.9486 82.8264 11.8867 82.6807V82.6807Z" fill="url(#paint32_radial_18_615)" fill-opacity="0.2"/>
<path d="M9.64478 70.3491H86.2878C87.6295 70.3491 88.7166 69.2617 88.7166 67.9203C88.7166 66.5789 87.6295 65.4915 86.2878 65.4915H9.64478C8.30309 65.4915 7.21594 66.5789 7.21594 67.9203C7.21594 69.2613 8.30341 70.3491 9.64478 70.3491Z" fill="#482728"/>
<path d="M9.64478 70.3491H86.2878C87.6295 70.3491 88.7166 69.2617 88.7166 67.9203C88.7166 66.5789 87.6295 65.4915 86.2878 65.4915H9.64478C8.30309 65.4915 7.21594 66.5789 7.21594 67.9203C7.21594 69.2613 8.30341 70.3491 9.64478 70.3491Z" fill="url(#paint33_linear_18_615)" fill-opacity="0.2"/>
<path d="M9.64478 70.3491H86.2878C87.6295 70.3491 88.7166 69.2617 88.7166 67.9203C88.7166 66.5789 87.6295 65.4915 86.2878 65.4915H9.64478C8.30309 65.4915 7.21594 66.5789 7.21594 67.9203C7.21594 69.2613 8.30341 70.3491 9.64478 70.3491Z" fill="url(#paint34_linear_18_615)" fill-opacity="0.2"/>
<path d="M9.64478 70.3491H86.2878C87.6295 70.3491 88.7166 69.2617 88.7166 67.9203C88.7166 66.5789 87.6295 65.4915 86.2878 65.4915H9.64478C8.30309 65.4915 7.21594 66.5789 7.21594 67.9203C7.21594 69.2613 8.30341 70.3491 9.64478 70.3491Z" fill="url(#paint35_radial_18_615)" fill-opacity="0.2"/>
<defs>
<linearGradient id="paint0_linear_18_615" x1="34.1391" y1="102.699" x2="23.3135" y2="106.242" gradientUnits="userSpaceOnUse">
<stop stop-color="white"/>
<stop offset="1" stop-color="white" stop-opacity="0"/>
</linearGradient>
<linearGradient id="paint1_linear_18_615" x1="34.2153" y1="116.277" x2="26.8894" y2="116.431" gradientUnits="userSpaceOnUse">
<stop stop-color="white"/>
<stop offset="1" stop-color="white" stop-opacity="0"/>
</linearGradient>
<radialGradient id="paint2_radial_18_615" cx="0" cy="0" r="1" gradientUnits="userSpaceOnUse" gradientTransform="translate(26.906 109.111) rotate(90) scale(8.10891 8.10875)">
<stop stop-color="#1C560D"/>
<stop offset="1" stop-opacity="0"/>
</radialGradient>
<linearGradient id="paint3_linear_18_615" x1="130.608" y1="102.699" x2="119.782" y2="106.241" gradientUnits="userSpaceOnUse">
<stop stop-color="white"/>
<stop offset="1" stop-color="white" stop-opacity="0"/>
</linearGradient>
<linearGradient id="paint4_linear_18_615" x1="130.684" y1="116.277" x2="123.358" y2="116.431" gradientUnits="userSpaceOnUse">
<stop stop-color="white"/>
<stop offset="1" stop-color="white" stop-opacity="0"/>
</linearGradient>
<radialGradient id="paint5_radial_18_615" cx="0" cy="0" r="1" gradientUnits="userSpaceOnUse" gradientTransform="translate(123.375 109.111) rotate(90) scale(8.10891 8.10858)">
<stop stop-color="#1C560D"/>
<stop offset="1" stop-opacity="0"/>
</radialGradient>
<linearGradient id="paint6_linear_18_615" x1="141.901" y1="35.1597" x2="52.3082" y2="78.8024" gradientUnits="userSpaceOnUse">
<stop stop-color="white"/>
<stop offset="1" stop-color="white" stop-opacity="0"/>
</linearGradient>
<linearGradient id="paint7_linear_18_615" x1="142.606" y1="119.527" x2="74.883" y2="121.647" gradientUnits="userSpaceOnUse">
<stop stop-color="white"/>
<stop offset="1" stop-color="white" stop-opacity="0"/>
</linearGradient>
<radialGradient id="paint8_radial_18_615" cx="0" cy="0" r="1" gradientUnits="userSpaceOnUse" gradientTransform="translate(75 74.9998) rotate(90) scale(50.386 75)">
<stop stop-color="#1C560D"/>
<stop offset="1" stop-opacity="0"/>
</radialGradient>
<linearGradient id="paint9_linear_18_615" x1="140.462" y1="50.5454" x2="114.415" y2="64.0178" gradientUnits="userSpaceOnUse">
<stop stop-color="white"/>
<stop offset="1" stop-color="white" stop-opacity="0"/>
</linearGradient>
<linearGradient id="paint10_linear_18_615" x1="140.672" y1="74.2092" x2="120.504" y2="74.8795" gradientUnits="userSpaceOnUse">
<stop stop-color="white"/>
<stop offset="1" stop-color="white" stop-opacity="0"/>
</linearGradient>
<radialGradient id="paint11_radial_18_615" cx="0" cy="0" r="1" gradientUnits="userSpaceOnUse" gradientTransform="translate(120.537 61.72) rotate(90) scale(14.1326 22.3372)">
<stop stop-color="#1C560D"/>
<stop offset="1" stop-opacity="0"/>
</radialGradient>
<linearGradient id="paint12_linear_18_615" x1="142.612" y1="84.613" x2="139.095" y2="85.1214" gradientUnits="userSpaceOnUse">
<stop stop-color="white"/>
<stop offset="1" stop-color="white" stop-opacity="0"/>
</linearGradient>
<linearGradient id="paint13_linear_18_615" x1="142.635" y1="93.8177" x2="140.44" y2="93.8381" gradientUnits="userSpaceOnUse">
<stop stop-color="white"/>
<stop offset="1" stop-color="white" stop-opacity="0"/>
</linearGradient>
<radialGradient id="paint14_radial_18_615" cx="0" cy="0" r="1" gradientUnits="userSpaceOnUse" gradientTransform="translate(140.445 88.9597) rotate(90) scale(5.49727 2.42883)">
<stop stop-color="#1C560D"/>
<stop offset="1" stop-opacity="0"/>
</radialGradient>
<linearGradient id="paint15_linear_18_615" x1="84.3164" y1="34.6224" x2="82.3826" y2="45.2399" gradientUnits="userSpaceOnUse">
<stop stop-color="white"/>
<stop offset="1" stop-color="white" stop-opacity="0"/>
</linearGradient>
<linearGradient id="paint16_linear_18_615" x1="84.699" y1="38.6893" x2="51.944" y2="50.2458" gradientUnits="userSpaceOnUse">
<stop stop-color="white"/>
<stop offset="1" stop-color="white" stop-opacity="0"/>
</linearGradient>
<radialGradient id="paint17_radial_18_615" cx="0" cy="0" r="1" gradientUnits="userSpaceOnUse" gradientTransform="translate(47.9663 36.5428) rotate(90) scale(2.42883 40.7503)">
<stop stop-color="#1C560D"/>
<stop offset="1" stop-opacity="0"/>
</radialGradient>
<linearGradient id="paint18_linear_18_615" x1="77.9" y1="50.3111" x2="75.8034" y2="60.8643" gradientUnits="userSpaceOnUse">
<stop stop-color="white"/>
<stop offset="1" stop-color="white" stop-opacity="0"/>
</linearGradient>
<linearGradient id="paint19_linear_18_615" x1="78.2508" y1="54.378" x2="47.6819" y2="64.2657" gradientUnits="userSpaceOnUse">
<stop stop-color="white"/>
<stop offset="1" stop-color="white" stop-opacity="0"/>
</linearGradient>
<radialGradient id="paint20_radial_18_615" cx="0" cy="0" r="1" gradientUnits="userSpaceOnUse" gradientTransform="translate(44.575 52.2316) rotate(90) scale(2.42884 37.3591)">
<stop stop-color="#1C560D"/>
<stop offset="1" stop-opacity="0"/>
</radialGradient>
<linearGradient id="paint21_linear_18_615" x1="88.4448" y1="50.3119" x2="85.2086" y2="51.3707" gradientUnits="userSpaceOnUse">
<stop stop-color="white"/>
<stop offset="1" stop-color="white" stop-opacity="0"/>
</linearGradient>
<linearGradient id="paint22_linear_18_615" x1="88.4676" y1="54.3718" x2="86.2777" y2="54.4178" gradientUnits="userSpaceOnUse">
<stop stop-color="white"/>
<stop offset="1" stop-color="white" stop-opacity="0"/>
</linearGradient>
<radialGradient id="paint23_radial_18_615" cx="0" cy="0" r="1" gradientUnits="userSpaceOnUse" gradientTransform="translate(86.2827 52.2291) rotate(90) scale(2.42462 2.42389)">
<stop stop-color="#1C560D"/>
<stop offset="1" stop-opacity="0"/>
</radialGradient>
<linearGradient id="paint24_linear_18_615" x1="84.6828" y1="81.688" x2="82.5863" y2="92.2413" gradientUnits="userSpaceOnUse">
<stop stop-color="white"/>
<stop offset="1" stop-color="white" stop-opacity="0"/>
</linearGradient>
<linearGradient id="paint25_linear_18_615" x1="85.0336" y1="85.7549" x2="54.4647" y2="95.6426" gradientUnits="userSpaceOnUse">
<stop stop-color="white"/>
<stop offset="1" stop-color="white" stop-opacity="0"/>
</linearGradient>
<radialGradient id="paint26_radial_18_615" cx="0" cy="0" r="1" gradientUnits="userSpaceOnUse" gradientTransform="translate(51.3578 83.6085) rotate(90) scale(2.42883 37.359)">
<stop stop-color="#1C560D"/>
<stop offset="1" stop-opacity="0"/>
</radialGradient>
<linearGradient id="paint27_linear_18_615" x1="11.8119" y1="81.7077" x2="8.58532" y2="82.7631" gradientUnits="userSpaceOnUse">
<stop stop-color="white"/>
<stop offset="1" stop-color="white" stop-opacity="0"/>
</linearGradient>
<linearGradient id="paint28_linear_18_615" x1="11.8346" y1="85.756" x2="9.65131" y2="85.8019" gradientUnits="userSpaceOnUse">
<stop stop-color="white"/>
<stop offset="1" stop-color="white" stop-opacity="0"/>
</linearGradient>
<radialGradient id="paint29_radial_18_615" cx="0" cy="0" r="1" gradientUnits="userSpaceOnUse" gradientTransform="translate(9.65626 83.6194) rotate(90) scale(2.41772 2.41663)">
<stop stop-color="#1C560D"/>
<stop offset="1" stop-opacity="0"/>
</radialGradient>
<linearGradient id="paint30_linear_18_615" x1="11.9027" y1="82.6463" x2="11.877" y2="82.6499" gradientUnits="userSpaceOnUse">
<stop stop-color="white"/>
<stop offset="1" stop-color="white" stop-opacity="0"/>
</linearGradient>
<linearGradient id="paint31_linear_18_615" x1="11.9029" y1="82.7175" x2="11.8869" y2="82.7176" gradientUnits="userSpaceOnUse">
<stop stop-color="white"/>
<stop offset="1" stop-color="white" stop-opacity="0"/>
</linearGradient>
<radialGradient id="paint32_radial_18_615" cx="0" cy="0" r="1" gradientUnits="userSpaceOnUse" gradientTransform="translate(11.8869 82.6799) rotate(90) scale(0.0424914 0.0177626)">
<stop stop-color="#1C560D"/>
<stop offset="1" stop-opacity="0"/>
</radialGradient>
<linearGradient id="paint33_linear_18_615" x1="84.3164" y1="65.9998" x2="82.3826" y2="76.6174" gradientUnits="userSpaceOnUse">
<stop stop-color="white"/>
<stop offset="1" stop-color="white" stop-opacity="0"/>
</linearGradient>
<linearGradient id="paint34_linear_18_615" x1="84.699" y1="70.0667" x2="51.944" y2="81.6233" gradientUnits="userSpaceOnUse">
<stop stop-color="white"/>
<stop offset="1" stop-color="white" stop-opacity="0"/>
</linearGradient>
<radialGradient id="paint35_radial_18_615" cx="0" cy="0" r="1" gradientUnits="userSpaceOnUse" gradientTransform="translate(47.9663 67.9203) rotate(90) scale(2.42883 40.7503)">
<stop stop-color="#1C560D"/>
<stop offset="1" stop-opacity="0"/>
</radialGradient>
</defs>
</svg>
