<svg width="150" height="150" viewBox="0 0 150 150" fill="none" xmlns="http://www.w3.org/2000/svg">
<path d="M109.635 93.3449L88.83 72.5249L118.245 43.1099L127.245 39.1949C127.676 39.0043 128.038 38.6846 128.28 38.2799L138.66 21.1499C138.916 20.7193 139.022 20.2154 138.959 19.7181C138.897 19.2208 138.67 18.7587 138.315 18.4049L130.38 10.4999C130.026 10.1449 129.564 9.91816 129.067 9.85566C128.57 9.79316 128.066 9.89848 127.635 10.1549L110.505 20.4299C110.101 20.668 109.785 21.0313 109.605 21.4649L105.645 30.4649L76.215 59.9999L56.715 40.4999C58.4195 35.7095 58.7068 30.5292 57.5426 25.5797C56.3783 20.6302 53.8119 16.1212 50.1506 12.5929C46.4894 9.06466 41.8886 6.66668 36.8994 5.68624C31.9102 4.7058 26.7442 5.18447 22.02 7.06491C21.6724 7.20147 21.3642 7.42244 21.1233 7.70788C20.8823 7.99332 20.7163 8.33425 20.64 8.69991C20.5661 9.06661 20.5835 9.44587 20.6908 9.80425C20.798 10.1626 20.9918 10.4891 21.255 10.7549L35.34 24.8399L24.84 35.3399L10.755 21.2549C10.4892 20.9917 10.1627 20.7979 9.80437 20.6906C9.44599 20.5834 9.06673 20.566 8.70003 20.6399C8.33437 20.7161 7.99344 20.8822 7.708 21.1231C7.42256 21.3641 7.2016 21.6722 7.06503 22.0199C5.21882 26.7274 4.76096 31.8655 5.74572 36.8253C6.73047 41.7851 9.11656 46.3586 12.6212 50.0037C16.1258 53.6488 20.602 56.2127 25.5192 57.3915C30.4365 58.5704 35.5886 58.3148 40.365 56.6549L57 73.2449L52.95 77.2499C51.9049 76.213 50.4923 75.6312 49.02 75.6312C47.5478 75.6312 46.1352 76.213 45.09 77.2499L9.67503 112.5C8.38608 113.785 7.36339 115.311 6.66558 116.992C5.96778 118.673 5.60858 120.475 5.60858 122.295C5.60858 124.115 5.96778 125.917 6.66558 127.598C7.36339 129.279 8.38608 130.805 9.67503 132.09L16.635 139.05C19.2358 141.642 22.758 143.098 26.43 143.098C30.102 143.098 33.6243 141.642 36.225 139.05L71.565 103.725C72.6019 102.68 73.1838 101.267 73.1838 99.7949C73.1838 98.3227 72.6019 96.9101 71.565 95.8649H71.49L75.495 91.8599L93.345 109.71C91.6919 114.486 91.4412 119.635 92.6225 124.549C93.8037 129.463 96.3675 133.936 100.011 137.439C103.654 140.942 108.224 143.328 113.181 144.315C118.137 145.302 123.273 144.849 127.98 143.01C128.328 142.873 128.636 142.652 128.877 142.367C129.118 142.082 129.284 141.741 129.36 141.375C129.434 141.008 129.417 140.629 129.309 140.271C129.202 139.912 129.008 139.586 128.745 139.32L114.66 125.235L125.16 114.735L139.245 128.82C139.511 129.083 139.837 129.277 140.196 129.384C140.554 129.491 140.933 129.509 141.3 129.435C141.666 129.359 142.007 129.193 142.292 128.952C142.577 128.711 142.798 128.403 142.935 128.055C144.781 123.347 145.239 118.209 144.254 113.25C143.27 108.29 140.883 103.716 137.379 100.071C133.874 96.4261 129.398 93.8621 124.481 92.6833C119.564 91.5044 114.411 91.7601 109.635 93.4199V93.3449ZM113.43 23.9999L128.43 14.9999L133.875 20.4449L124.875 35.4449L117.465 38.5499L110.205 31.2749L113.43 23.9999ZM107.52 35.0399L113.775 41.2949L74.61 80.3849L68.355 74.1299L107.52 35.0399ZM42.51 52.4999C42.0866 52.0806 41.5159 51.8437 40.92 51.8399C40.6258 51.8419 40.335 51.9031 40.065 52.0199C36.3639 53.5453 32.3163 54.03 28.3597 53.4216C24.4031 52.8133 20.688 51.1349 17.6161 48.5681C14.5443 46.0013 12.2325 42.6436 10.9307 38.8581C9.62888 35.0725 9.3866 31.0032 10.23 27.0899L23.25 40.1099C23.4579 40.3203 23.7055 40.4874 23.9784 40.6015C24.2514 40.7155 24.5442 40.7742 24.84 40.7742C25.1358 40.7742 25.4287 40.7155 25.7016 40.6015C25.9746 40.4874 26.2221 40.3203 26.43 40.1099L40.125 26.4299C40.5392 26.0043 40.7709 25.4338 40.7709 24.8399C40.7709 24.246 40.5392 23.6756 40.125 23.2499L27.09 10.2299C31 9.39442 35.0639 9.64299 38.8428 10.9488C42.6218 12.2546 45.9723 14.568 48.5323 17.6391C51.0924 20.7102 52.7647 24.4224 53.3688 28.3747C53.9729 32.327 53.4858 36.3693 51.96 40.0649C51.7997 40.4804 51.7654 40.9339 51.8615 41.3688C51.9575 41.8037 52.1796 42.2006 52.5 42.5099L73.035 63.1049L65.175 70.9499L63.81 69.5849C63.3856 69.1626 62.8112 68.9256 62.2125 68.9256C61.6138 68.9256 61.0395 69.1626 60.615 69.5849L60.135 70.0649L42.51 52.4999ZM68.385 100.5L33 135.885C31.243 137.634 28.8645 138.617 26.385 138.617C23.9055 138.617 21.527 137.634 19.77 135.885L12.855 129C11.9856 128.133 11.2958 127.103 10.8251 125.97C10.3544 124.836 10.1121 123.62 10.1121 122.392C10.1121 121.165 10.3544 119.949 10.8251 118.815C11.2958 117.681 11.9856 116.652 12.855 115.785L48.195 80.3549C48.3964 80.1606 48.6652 80.052 48.945 80.052C49.2248 80.052 49.4937 80.1606 49.695 80.3549L51.36 82.0199L66.72 97.3799L68.385 98.9999C68.5759 99.203 68.6822 99.4712 68.6822 99.7499C68.6822 100.029 68.5759 100.297 68.385 100.5ZM68.31 92.5649L56.13 80.3849L62.13 74.3849L72.945 85.1849L74.31 86.5649L68.31 92.5649ZM139.77 122.865L126.75 109.89C126.542 109.679 126.295 109.512 126.022 109.398C125.749 109.284 125.456 109.226 125.16 109.226C124.864 109.226 124.571 109.284 124.298 109.398C124.025 109.512 123.778 109.679 123.57 109.89L109.875 123.57C109.461 123.996 109.229 124.566 109.229 125.16C109.229 125.754 109.461 126.324 109.875 126.75L122.91 139.77C119 140.605 114.936 140.357 111.157 139.051C107.378 137.745 104.028 135.432 101.468 132.361C98.9077 129.29 97.2353 125.577 96.6312 121.625C96.0271 117.673 96.5143 113.631 98.04 109.935C98.2004 109.519 98.2347 109.066 98.1386 108.631C98.0426 108.196 97.8204 107.799 97.5 107.49L78.675 88.6049L79.155 88.1249C79.3655 87.917 79.5325 87.6694 79.6466 87.3965C79.7606 87.1236 79.8193 86.8307 79.8193 86.5349C79.8193 86.2391 79.7606 85.9463 79.6466 85.6733C79.5325 85.4004 79.3655 85.1528 79.155 84.9449L77.79 83.5649L85.635 75.7199L107.49 97.4999C107.804 97.8136 108.204 98.0268 108.639 98.1122C109.075 98.1977 109.526 98.1517 109.935 97.9799C113.636 96.4545 117.684 95.9698 121.64 96.5782C125.597 97.1866 129.312 98.8649 132.384 101.432C135.456 103.999 137.768 107.356 139.069 111.142C140.371 114.927 140.613 118.997 139.77 122.91V122.865ZM51.675 92.2649L20.82 123.12C20.3976 123.541 19.8262 123.778 19.23 123.78C18.7973 123.769 18.3771 123.633 18.0197 123.388C17.6623 123.144 17.3829 122.802 17.215 122.403C17.0472 122.004 16.998 121.565 17.0734 121.139C17.1488 120.713 17.3455 120.317 17.64 120L48.495 89.0849C48.9216 88.6875 49.4857 88.4711 50.0686 88.4814C50.6515 88.4917 51.2077 88.7278 51.6199 89.1401C52.0321 89.5523 52.2683 90.1084 52.2785 90.6914C52.2888 91.2743 52.0725 91.8384 51.675 92.2649ZM59.655 97.0649C59.8655 97.2728 60.0325 97.5204 60.1466 97.7933C60.2606 98.0663 60.3193 98.3591 60.3193 98.6549C60.3193 98.9507 60.2606 99.2436 60.1466 99.5165C60.0325 99.7895 59.8655 100.037 59.655 100.245L28.8 131.1C28.3782 131.521 27.8063 131.758 27.21 131.758C26.6138 131.758 26.0419 131.521 25.62 131.1C25.4096 130.892 25.2425 130.644 25.1285 130.372C25.0145 130.099 24.9557 129.806 24.9557 129.51C24.9557 129.214 25.0145 128.921 25.1285 128.648C25.2425 128.375 25.4096 128.128 25.62 127.92L56.475 97.0649C56.6829 96.8545 56.9305 96.6874 57.2034 96.5734C57.4764 96.4593 57.7692 96.4006 58.065 96.4006C58.3608 96.4006 58.6537 96.4593 58.9266 96.5734C59.1996 96.6874 59.4471 96.8545 59.655 97.0649Z" fill="#482728"/>
<path d="M109.635 93.3449L88.83 72.5249L118.245 43.1099L127.245 39.1949C127.676 39.0043 128.038 38.6846 128.28 38.2799L138.66 21.1499C138.916 20.7193 139.022 20.2154 138.959 19.7181C138.897 19.2208 138.67 18.7587 138.315 18.4049L130.38 10.4999C130.026 10.1449 129.564 9.91816 129.067 9.85566C128.57 9.79316 128.066 9.89848 127.635 10.1549L110.505 20.4299C110.101 20.668 109.785 21.0313 109.605 21.4649L105.645 30.4649L76.215 59.9999L56.715 40.4999C58.4195 35.7095 58.7068 30.5292 57.5426 25.5797C56.3783 20.6302 53.8119 16.1212 50.1506 12.5929C46.4894 9.06466 41.8886 6.66668 36.8994 5.68624C31.9102 4.7058 26.7442 5.18447 22.02 7.06491C21.6724 7.20147 21.3642 7.42244 21.1233 7.70788C20.8823 7.99332 20.7163 8.33425 20.64 8.69991C20.5661 9.06661 20.5835 9.44587 20.6908 9.80425C20.798 10.1626 20.9918 10.4891 21.255 10.7549L35.34 24.8399L24.84 35.3399L10.755 21.2549C10.4892 20.9917 10.1627 20.7979 9.80437 20.6906C9.44599 20.5834 9.06673 20.566 8.70003 20.6399C8.33437 20.7161 7.99344 20.8822 7.708 21.1231C7.42256 21.3641 7.2016 21.6722 7.06503 22.0199C5.21882 26.7274 4.76096 31.8655 5.74572 36.8253C6.73047 41.7851 9.11656 46.3586 12.6212 50.0037C16.1258 53.6488 20.602 56.2127 25.5192 57.3915C30.4365 58.5704 35.5886 58.3148 40.365 56.6549L57 73.2449L52.95 77.2499C51.9049 76.213 50.4923 75.6312 49.02 75.6312C47.5478 75.6312 46.1352 76.213 45.09 77.2499L9.67503 112.5C8.38608 113.785 7.36339 115.311 6.66558 116.992C5.96778 118.673 5.60858 120.475 5.60858 122.295C5.60858 124.115 5.96778 125.917 6.66558 127.598C7.36339 129.279 8.38608 130.805 9.67503 132.09L16.635 139.05C19.2358 141.642 22.758 143.098 26.43 143.098C30.102 143.098 33.6243 141.642 36.225 139.05L71.565 103.725C72.6019 102.68 73.1838 101.267 73.1838 99.7949C73.1838 98.3227 72.6019 96.9101 71.565 95.8649H71.49L75.495 91.8599L93.345 109.71C91.6919 114.486 91.4412 119.635 92.6225 124.549C93.8037 129.463 96.3675 133.936 100.011 137.439C103.654 140.942 108.224 143.328 113.181 144.315C118.137 145.302 123.273 144.849 127.98 143.01C128.328 142.873 128.636 142.652 128.877 142.367C129.118 142.082 129.284 141.741 129.36 141.375C129.434 141.008 129.417 140.629 129.309 140.271C129.202 139.912 129.008 139.586 128.745 139.32L114.66 125.235L125.16 114.735L139.245 128.82C139.511 129.083 139.837 129.277 140.196 129.384C140.554 129.491 140.933 129.509 141.3 129.435C141.666 129.359 142.007 129.193 142.292 128.952C142.577 128.711 142.798 128.403 142.935 128.055C144.781 123.347 145.239 118.209 144.254 113.25C143.27 108.29 140.883 103.716 137.379 100.071C133.874 96.4261 129.398 93.8621 124.481 92.6833C119.564 91.5044 114.411 91.7601 109.635 93.4199V93.3449ZM113.43 23.9999L128.43 14.9999L133.875 20.4449L124.875 35.4449L117.465 38.5499L110.205 31.2749L113.43 23.9999ZM107.52 35.0399L113.775 41.2949L74.61 80.3849L68.355 74.1299L107.52 35.0399ZM42.51 52.4999C42.0866 52.0806 41.5159 51.8437 40.92 51.8399C40.6258 51.8419 40.335 51.9031 40.065 52.0199C36.3639 53.5453 32.3163 54.03 28.3597 53.4216C24.4031 52.8133 20.688 51.1349 17.6161 48.5681C14.5443 46.0013 12.2325 42.6436 10.9307 38.8581C9.62888 35.0725 9.3866 31.0032 10.23 27.0899L23.25 40.1099C23.4579 40.3203 23.7055 40.4874 23.9784 40.6015C24.2514 40.7155 24.5442 40.7742 24.84 40.7742C25.1358 40.7742 25.4287 40.7155 25.7016 40.6015C25.9746 40.4874 26.2221 40.3203 26.43 40.1099L40.125 26.4299C40.5392 26.0043 40.7709 25.4338 40.7709 24.8399C40.7709 24.246 40.5392 23.6756 40.125 23.2499L27.09 10.2299C31 9.39442 35.0639 9.64299 38.8428 10.9488C42.6218 12.2546 45.9723 14.568 48.5323 17.6391C51.0924 20.7102 52.7647 24.4224 53.3688 28.3747C53.9729 32.327 53.4858 36.3693 51.96 40.0649C51.7997 40.4804 51.7654 40.9339 51.8615 41.3688C51.9575 41.8037 52.1796 42.2006 52.5 42.5099L73.035 63.1049L65.175 70.9499L63.81 69.5849C63.3856 69.1626 62.8112 68.9256 62.2125 68.9256C61.6138 68.9256 61.0395 69.1626 60.615 69.5849L60.135 70.0649L42.51 52.4999ZM68.385 100.5L33 135.885C31.243 137.634 28.8645 138.617 26.385 138.617C23.9055 138.617 21.527 137.634 19.77 135.885L12.855 129C11.9856 128.133 11.2958 127.103 10.8251 125.97C10.3544 124.836 10.1121 123.62 10.1121 122.392C10.1121 121.165 10.3544 119.949 10.8251 118.815C11.2958 117.681 11.9856 116.652 12.855 115.785L48.195 80.3549C48.3964 80.1606 48.6652 80.052 48.945 80.052C49.2248 80.052 49.4937 80.1606 49.695 80.3549L51.36 82.0199L66.72 97.3799L68.385 98.9999C68.5759 99.203 68.6822 99.4712 68.6822 99.7499C68.6822 100.029 68.5759 100.297 68.385 100.5ZM68.31 92.5649L56.13 80.3849L62.13 74.3849L72.945 85.1849L74.31 86.5649L68.31 92.5649ZM139.77 122.865L126.75 109.89C126.542 109.679 126.295 109.512 126.022 109.398C125.749 109.284 125.456 109.226 125.16 109.226C124.864 109.226 124.571 109.284 124.298 109.398C124.025 109.512 123.778 109.679 123.57 109.89L109.875 123.57C109.461 123.996 109.229 124.566 109.229 125.16C109.229 125.754 109.461 126.324 109.875 126.75L122.91 139.77C119 140.605 114.936 140.357 111.157 139.051C107.378 137.745 104.028 135.432 101.468 132.361C98.9077 129.29 97.2353 125.577 96.6312 121.625C96.0271 117.673 96.5143 113.631 98.04 109.935C98.2004 109.519 98.2347 109.066 98.1386 108.631C98.0426 108.196 97.8204 107.799 97.5 107.49L78.675 88.6049L79.155 88.1249C79.3655 87.917 79.5325 87.6694 79.6466 87.3965C79.7606 87.1236 79.8193 86.8307 79.8193 86.5349C79.8193 86.2391 79.7606 85.9463 79.6466 85.6733C79.5325 85.4004 79.3655 85.1528 79.155 84.9449L77.79 83.5649L85.635 75.7199L107.49 97.4999C107.804 97.8136 108.204 98.0268 108.639 98.1122C109.075 98.1977 109.526 98.1517 109.935 97.9799C113.636 96.4545 117.684 95.9698 121.64 96.5782C125.597 97.1866 129.312 98.8649 132.384 101.432C135.456 103.999 137.768 107.356 139.069 111.142C140.371 114.927 140.613 118.997 139.77 122.91V122.865ZM51.675 92.2649L20.82 123.12C20.3976 123.541 19.8262 123.778 19.23 123.78C18.7973 123.769 18.3771 123.633 18.0197 123.388C17.6623 123.144 17.3829 122.802 17.215 122.403C17.0472 122.004 16.998 121.565 17.0734 121.139C17.1488 120.713 17.3455 120.317 17.64 120L48.495 89.0849C48.9216 88.6875 49.4857 88.4711 50.0686 88.4814C50.6515 88.4917 51.2077 88.7278 51.6199 89.1401C52.0321 89.5523 52.2683 90.1084 52.2785 90.6914C52.2888 91.2743 52.0725 91.8384 51.675 92.2649ZM59.655 97.0649C59.8655 97.2728 60.0325 97.5204 60.1466 97.7933C60.2606 98.0663 60.3193 98.3591 60.3193 98.6549C60.3193 98.9507 60.2606 99.2436 60.1466 99.5165C60.0325 99.7895 59.8655 100.037 59.655 100.245L28.8 131.1C28.3782 131.521 27.8063 131.758 27.21 131.758C26.6138 131.758 26.0419 131.521 25.62 131.1C25.4096 130.892 25.2425 130.644 25.1285 130.372C25.0145 130.099 24.9557 129.806 24.9557 129.51C24.9557 129.214 25.0145 128.921 25.1285 128.648C25.2425 128.375 25.4096 128.128 25.62 127.92L56.475 97.0649C56.6829 96.8545 56.9305 96.6874 57.2034 96.5734C57.4764 96.4593 57.7692 96.4006 58.065 96.4006C58.3608 96.4006 58.6537 96.4593 58.9266 96.5734C59.1996 96.6874 59.4471 96.8545 59.655 97.0649Z" fill="url(#paint0_linear_18_631)" fill-opacity="0.2"/>
<path d="M109.635 93.3449L88.83 72.5249L118.245 43.1099L127.245 39.1949C127.676 39.0043 128.038 38.6846 128.28 38.2799L138.66 21.1499C138.916 20.7193 139.022 20.2154 138.959 19.7181C138.897 19.2208 138.67 18.7587 138.315 18.4049L130.38 10.4999C130.026 10.1449 129.564 9.91816 129.067 9.85566C128.57 9.79316 128.066 9.89848 127.635 10.1549L110.505 20.4299C110.101 20.668 109.785 21.0313 109.605 21.4649L105.645 30.4649L76.215 59.9999L56.715 40.4999C58.4195 35.7095 58.7068 30.5292 57.5426 25.5797C56.3783 20.6302 53.8119 16.1212 50.1506 12.5929C46.4894 9.06466 41.8886 6.66668 36.8994 5.68624C31.9102 4.7058 26.7442 5.18447 22.02 7.06491C21.6724 7.20147 21.3642 7.42244 21.1233 7.70788C20.8823 7.99332 20.7163 8.33425 20.64 8.69991C20.5661 9.06661 20.5835 9.44587 20.6908 9.80425C20.798 10.1626 20.9918 10.4891 21.255 10.7549L35.34 24.8399L24.84 35.3399L10.755 21.2549C10.4892 20.9917 10.1627 20.7979 9.80437 20.6906C9.44599 20.5834 9.06673 20.566 8.70003 20.6399C8.33437 20.7161 7.99344 20.8822 7.708 21.1231C7.42256 21.3641 7.2016 21.6722 7.06503 22.0199C5.21882 26.7274 4.76096 31.8655 5.74572 36.8253C6.73047 41.7851 9.11656 46.3586 12.6212 50.0037C16.1258 53.6488 20.602 56.2127 25.5192 57.3915C30.4365 58.5704 35.5886 58.3148 40.365 56.6549L57 73.2449L52.95 77.2499C51.9049 76.213 50.4923 75.6312 49.02 75.6312C47.5478 75.6312 46.1352 76.213 45.09 77.2499L9.67503 112.5C8.38608 113.785 7.36339 115.311 6.66558 116.992C5.96778 118.673 5.60858 120.475 5.60858 122.295C5.60858 124.115 5.96778 125.917 6.66558 127.598C7.36339 129.279 8.38608 130.805 9.67503 132.09L16.635 139.05C19.2358 141.642 22.758 143.098 26.43 143.098C30.102 143.098 33.6243 141.642 36.225 139.05L71.565 103.725C72.6019 102.68 73.1838 101.267 73.1838 99.7949C73.1838 98.3227 72.6019 96.9101 71.565 95.8649H71.49L75.495 91.8599L93.345 109.71C91.6919 114.486 91.4412 119.635 92.6225 124.549C93.8037 129.463 96.3675 133.936 100.011 137.439C103.654 140.942 108.224 143.328 113.181 144.315C118.137 145.302 123.273 144.849 127.98 143.01C128.328 142.873 128.636 142.652 128.877 142.367C129.118 142.082 129.284 141.741 129.36 141.375C129.434 141.008 129.417 140.629 129.309 140.271C129.202 139.912 129.008 139.586 128.745 139.32L114.66 125.235L125.16 114.735L139.245 128.82C139.511 129.083 139.837 129.277 140.196 129.384C140.554 129.491 140.933 129.509 141.3 129.435C141.666 129.359 142.007 129.193 142.292 128.952C142.577 128.711 142.798 128.403 142.935 128.055C144.781 123.347 145.239 118.209 144.254 113.25C143.27 108.29 140.883 103.716 137.379 100.071C133.874 96.4261 129.398 93.8621 124.481 92.6833C119.564 91.5044 114.411 91.7601 109.635 93.4199V93.3449ZM113.43 23.9999L128.43 14.9999L133.875 20.4449L124.875 35.4449L117.465 38.5499L110.205 31.2749L113.43 23.9999ZM107.52 35.0399L113.775 41.2949L74.61 80.3849L68.355 74.1299L107.52 35.0399ZM42.51 52.4999C42.0866 52.0806 41.5159 51.8437 40.92 51.8399C40.6258 51.8419 40.335 51.9031 40.065 52.0199C36.3639 53.5453 32.3163 54.03 28.3597 53.4216C24.4031 52.8133 20.688 51.1349 17.6161 48.5681C14.5443 46.0013 12.2325 42.6436 10.9307 38.8581C9.62888 35.0725 9.3866 31.0032 10.23 27.0899L23.25 40.1099C23.4579 40.3203 23.7055 40.4874 23.9784 40.6015C24.2514 40.7155 24.5442 40.7742 24.84 40.7742C25.1358 40.7742 25.4287 40.7155 25.7016 40.6015C25.9746 40.4874 26.2221 40.3203 26.43 40.1099L40.125 26.4299C40.5392 26.0043 40.7709 25.4338 40.7709 24.8399C40.7709 24.246 40.5392 23.6756 40.125 23.2499L27.09 10.2299C31 9.39442 35.0639 9.64299 38.8428 10.9488C42.6218 12.2546 45.9723 14.568 48.5323 17.6391C51.0924 20.7102 52.7647 24.4224 53.3688 28.3747C53.9729 32.327 53.4858 36.3693 51.96 40.0649C51.7997 40.4804 51.7654 40.9339 51.8615 41.3688C51.9575 41.8037 52.1796 42.2006 52.5 42.5099L73.035 63.1049L65.175 70.9499L63.81 69.5849C63.3856 69.1626 62.8112 68.9256 62.2125 68.9256C61.6138 68.9256 61.0395 69.1626 60.615 69.5849L60.135 70.0649L42.51 52.4999ZM68.385 100.5L33 135.885C31.243 137.634 28.8645 138.617 26.385 138.617C23.9055 138.617 21.527 137.634 19.77 135.885L12.855 129C11.9856 128.133 11.2958 127.103 10.8251 125.97C10.3544 124.836 10.1121 123.62 10.1121 122.392C10.1121 121.165 10.3544 119.949 10.8251 118.815C11.2958 117.681 11.9856 116.652 12.855 115.785L48.195 80.3549C48.3964 80.1606 48.6652 80.052 48.945 80.052C49.2248 80.052 49.4937 80.1606 49.695 80.3549L51.36 82.0199L66.72 97.3799L68.385 98.9999C68.5759 99.203 68.6822 99.4712 68.6822 99.7499C68.6822 100.029 68.5759 100.297 68.385 100.5ZM68.31 92.5649L56.13 80.3849L62.13 74.3849L72.945 85.1849L74.31 86.5649L68.31 92.5649ZM139.77 122.865L126.75 109.89C126.542 109.679 126.295 109.512 126.022 109.398C125.749 109.284 125.456 109.226 125.16 109.226C124.864 109.226 124.571 109.284 124.298 109.398C124.025 109.512 123.778 109.679 123.57 109.89L109.875 123.57C109.461 123.996 109.229 124.566 109.229 125.16C109.229 125.754 109.461 126.324 109.875 126.75L122.91 139.77C119 140.605 114.936 140.357 111.157 139.051C107.378 137.745 104.028 135.432 101.468 132.361C98.9077 129.29 97.2353 125.577 96.6312 121.625C96.0271 117.673 96.5143 113.631 98.04 109.935C98.2004 109.519 98.2347 109.066 98.1386 108.631C98.0426 108.196 97.8204 107.799 97.5 107.49L78.675 88.6049L79.155 88.1249C79.3655 87.917 79.5325 87.6694 79.6466 87.3965C79.7606 87.1236 79.8193 86.8307 79.8193 86.5349C79.8193 86.2391 79.7606 85.9463 79.6466 85.6733C79.5325 85.4004 79.3655 85.1528 79.155 84.9449L77.79 83.5649L85.635 75.7199L107.49 97.4999C107.804 97.8136 108.204 98.0268 108.639 98.1122C109.075 98.1977 109.526 98.1517 109.935 97.9799C113.636 96.4545 117.684 95.9698 121.64 96.5782C125.597 97.1866 129.312 98.8649 132.384 101.432C135.456 103.999 137.768 107.356 139.069 111.142C140.371 114.927 140.613 118.997 139.77 122.91V122.865ZM51.675 92.2649L20.82 123.12C20.3976 123.541 19.8262 123.778 19.23 123.78C18.7973 123.769 18.3771 123.633 18.0197 123.388C17.6623 123.144 17.3829 122.802 17.215 122.403C17.0472 122.004 16.998 121.565 17.0734 121.139C17.1488 120.713 17.3455 120.317 17.64 120L48.495 89.0849C48.9216 88.6875 49.4857 88.4711 50.0686 88.4814C50.6515 88.4917 51.2077 88.7278 51.6199 89.1401C52.0321 89.5523 52.2683 90.1084 52.2785 90.6914C52.2888 91.2743 52.0725 91.8384 51.675 92.2649ZM59.655 97.0649C59.8655 97.2728 60.0325 97.5204 60.1466 97.7933C60.2606 98.0663 60.3193 98.3591 60.3193 98.6549C60.3193 98.9507 60.2606 99.2436 60.1466 99.5165C60.0325 99.7895 59.8655 100.037 59.655 100.245L28.8 131.1C28.3782 131.521 27.8063 131.758 27.21 131.758C26.6138 131.758 26.0419 131.521 25.62 131.1C25.4096 130.892 25.2425 130.644 25.1285 130.372C25.0145 130.099 24.9557 129.806 24.9557 129.51C24.9557 129.214 25.0145 128.921 25.1285 128.648C25.2425 128.375 25.4096 128.128 25.62 127.92L56.475 97.0649C56.6829 96.8545 56.9305 96.6874 57.2034 96.5734C57.4764 96.4593 57.7692 96.4006 58.065 96.4006C58.3608 96.4006 58.6537 96.4593 58.9266 96.5734C59.1996 96.6874 59.4471 96.8545 59.655 97.0649Z" fill="url(#paint1_linear_18_631)" fill-opacity="0.2"/>
<path d="M109.635 93.3449L88.83 72.5249L118.245 43.1099L127.245 39.1949C127.676 39.0043 128.038 38.6846 128.28 38.2799L138.66 21.1499C138.916 20.7193 139.022 20.2154 138.959 19.7181C138.897 19.2208 138.67 18.7587 138.315 18.4049L130.38 10.4999C130.026 10.1449 129.564 9.91816 129.067 9.85566C128.57 9.79316 128.066 9.89848 127.635 10.1549L110.505 20.4299C110.101 20.668 109.785 21.0313 109.605 21.4649L105.645 30.4649L76.215 59.9999L56.715 40.4999C58.4195 35.7095 58.7068 30.5292 57.5426 25.5797C56.3783 20.6302 53.8119 16.1212 50.1506 12.5929C46.4894 9.06466 41.8886 6.66668 36.8994 5.68624C31.9102 4.7058 26.7442 5.18447 22.02 7.06491C21.6724 7.20147 21.3642 7.42244 21.1233 7.70788C20.8823 7.99332 20.7163 8.33425 20.64 8.69991C20.5661 9.06661 20.5835 9.44587 20.6908 9.80425C20.798 10.1626 20.9918 10.4891 21.255 10.7549L35.34 24.8399L24.84 35.3399L10.755 21.2549C10.4892 20.9917 10.1627 20.7979 9.80437 20.6906C9.44599 20.5834 9.06673 20.566 8.70003 20.6399C8.33437 20.7161 7.99344 20.8822 7.708 21.1231C7.42256 21.3641 7.2016 21.6722 7.06503 22.0199C5.21882 26.7274 4.76096 31.8655 5.74572 36.8253C6.73047 41.7851 9.11656 46.3586 12.6212 50.0037C16.1258 53.6488 20.602 56.2127 25.5192 57.3915C30.4365 58.5704 35.5886 58.3148 40.365 56.6549L57 73.2449L52.95 77.2499C51.9049 76.213 50.4923 75.6312 49.02 75.6312C47.5478 75.6312 46.1352 76.213 45.09 77.2499L9.67503 112.5C8.38608 113.785 7.36339 115.311 6.66558 116.992C5.96778 118.673 5.60858 120.475 5.60858 122.295C5.60858 124.115 5.96778 125.917 6.66558 127.598C7.36339 129.279 8.38608 130.805 9.67503 132.09L16.635 139.05C19.2358 141.642 22.758 143.098 26.43 143.098C30.102 143.098 33.6243 141.642 36.225 139.05L71.565 103.725C72.6019 102.68 73.1838 101.267 73.1838 99.7949C73.1838 98.3227 72.6019 96.9101 71.565 95.8649H71.49L75.495 91.8599L93.345 109.71C91.6919 114.486 91.4412 119.635 92.6225 124.549C93.8037 129.463 96.3675 133.936 100.011 137.439C103.654 140.942 108.224 143.328 113.181 144.315C118.137 145.302 123.273 144.849 127.98 143.01C128.328 142.873 128.636 142.652 128.877 142.367C129.118 142.082 129.284 141.741 129.36 141.375C129.434 141.008 129.417 140.629 129.309 140.271C129.202 139.912 129.008 139.586 128.745 139.32L114.66 125.235L125.16 114.735L139.245 128.82C139.511 129.083 139.837 129.277 140.196 129.384C140.554 129.491 140.933 129.509 141.3 129.435C141.666 129.359 142.007 129.193 142.292 128.952C142.577 128.711 142.798 128.403 142.935 128.055C144.781 123.347 145.239 118.209 144.254 113.25C143.27 108.29 140.883 103.716 137.379 100.071C133.874 96.4261 129.398 93.8621 124.481 92.6833C119.564 91.5044 114.411 91.7601 109.635 93.4199V93.3449ZM113.43 23.9999L128.43 14.9999L133.875 20.4449L124.875 35.4449L117.465 38.5499L110.205 31.2749L113.43 23.9999ZM107.52 35.0399L113.775 41.2949L74.61 80.3849L68.355 74.1299L107.52 35.0399ZM42.51 52.4999C42.0866 52.0806 41.5159 51.8437 40.92 51.8399C40.6258 51.8419 40.335 51.9031 40.065 52.0199C36.3639 53.5453 32.3163 54.03 28.3597 53.4216C24.4031 52.8133 20.688 51.1349 17.6161 48.5681C14.5443 46.0013 12.2325 42.6436 10.9307 38.8581C9.62888 35.0725 9.3866 31.0032 10.23 27.0899L23.25 40.1099C23.4579 40.3203 23.7055 40.4874 23.9784 40.6015C24.2514 40.7155 24.5442 40.7742 24.84 40.7742C25.1358 40.7742 25.4287 40.7155 25.7016 40.6015C25.9746 40.4874 26.2221 40.3203 26.43 40.1099L40.125 26.4299C40.5392 26.0043 40.7709 25.4338 40.7709 24.8399C40.7709 24.246 40.5392 23.6756 40.125 23.2499L27.09 10.2299C31 9.39442 35.0639 9.64299 38.8428 10.9488C42.6218 12.2546 45.9723 14.568 48.5323 17.6391C51.0924 20.7102 52.7647 24.4224 53.3688 28.3747C53.9729 32.327 53.4858 36.3693 51.96 40.0649C51.7997 40.4804 51.7654 40.9339 51.8615 41.3688C51.9575 41.8037 52.1796 42.2006 52.5 42.5099L73.035 63.1049L65.175 70.9499L63.81 69.5849C63.3856 69.1626 62.8112 68.9256 62.2125 68.9256C61.6138 68.9256 61.0395 69.1626 60.615 69.5849L60.135 70.0649L42.51 52.4999ZM68.385 100.5L33 135.885C31.243 137.634 28.8645 138.617 26.385 138.617C23.9055 138.617 21.527 137.634 19.77 135.885L12.855 129C11.9856 128.133 11.2958 127.103 10.8251 125.97C10.3544 124.836 10.1121 123.62 10.1121 122.392C10.1121 121.165 10.3544 119.949 10.8251 118.815C11.2958 117.681 11.9856 116.652 12.855 115.785L48.195 80.3549C48.3964 80.1606 48.6652 80.052 48.945 80.052C49.2248 80.052 49.4937 80.1606 49.695 80.3549L51.36 82.0199L66.72 97.3799L68.385 98.9999C68.5759 99.203 68.6822 99.4712 68.6822 99.7499C68.6822 100.029 68.5759 100.297 68.385 100.5ZM68.31 92.5649L56.13 80.3849L62.13 74.3849L72.945 85.1849L74.31 86.5649L68.31 92.5649ZM139.77 122.865L126.75 109.89C126.542 109.679 126.295 109.512 126.022 109.398C125.749 109.284 125.456 109.226 125.16 109.226C124.864 109.226 124.571 109.284 124.298 109.398C124.025 109.512 123.778 109.679 123.57 109.89L109.875 123.57C109.461 123.996 109.229 124.566 109.229 125.16C109.229 125.754 109.461 126.324 109.875 126.75L122.91 139.77C119 140.605 114.936 140.357 111.157 139.051C107.378 137.745 104.028 135.432 101.468 132.361C98.9077 129.29 97.2353 125.577 96.6312 121.625C96.0271 117.673 96.5143 113.631 98.04 109.935C98.2004 109.519 98.2347 109.066 98.1386 108.631C98.0426 108.196 97.8204 107.799 97.5 107.49L78.675 88.6049L79.155 88.1249C79.3655 87.917 79.5325 87.6694 79.6466 87.3965C79.7606 87.1236 79.8193 86.8307 79.8193 86.5349C79.8193 86.2391 79.7606 85.9463 79.6466 85.6733C79.5325 85.4004 79.3655 85.1528 79.155 84.9449L77.79 83.5649L85.635 75.7199L107.49 97.4999C107.804 97.8136 108.204 98.0268 108.639 98.1122C109.075 98.1977 109.526 98.1517 109.935 97.9799C113.636 96.4545 117.684 95.9698 121.64 96.5782C125.597 97.1866 129.312 98.8649 132.384 101.432C135.456 103.999 137.768 107.356 139.069 111.142C140.371 114.927 140.613 118.997 139.77 122.91V122.865ZM51.675 92.2649L20.82 123.12C20.3976 123.541 19.8262 123.778 19.23 123.78C18.7973 123.769 18.3771 123.633 18.0197 123.388C17.6623 123.144 17.3829 122.802 17.215 122.403C17.0472 122.004 16.998 121.565 17.0734 121.139C17.1488 120.713 17.3455 120.317 17.64 120L48.495 89.0849C48.9216 88.6875 49.4857 88.4711 50.0686 88.4814C50.6515 88.4917 51.2077 88.7278 51.6199 89.1401C52.0321 89.5523 52.2683 90.1084 52.2785 90.6914C52.2888 91.2743 52.0725 91.8384 51.675 92.2649ZM59.655 97.0649C59.8655 97.2728 60.0325 97.5204 60.1466 97.7933C60.2606 98.0663 60.3193 98.3591 60.3193 98.6549C60.3193 98.9507 60.2606 99.2436 60.1466 99.5165C60.0325 99.7895 59.8655 100.037 59.655 100.245L28.8 131.1C28.3782 131.521 27.8063 131.758 27.21 131.758C26.6138 131.758 26.0419 131.521 25.62 131.1C25.4096 130.892 25.2425 130.644 25.1285 130.372C25.0145 130.099 24.9557 129.806 24.9557 129.51C24.9557 129.214 25.0145 128.921 25.1285 128.648C25.2425 128.375 25.4096 128.128 25.62 127.92L56.475 97.0649C56.6829 96.8545 56.9305 96.6874 57.2034 96.5734C57.4764 96.4593 57.7692 96.4006 58.065 96.4006C58.3608 96.4006 58.6537 96.4593 58.9266 96.5734C59.1996 96.6874 59.4471 96.8545 59.655 97.0649Z" fill="url(#paint2_radial_18_631)" fill-opacity="0.2"/>
<defs>
<linearGradient id="paint0_linear_18_631" x1="137.228" y1="19.8029" x2="44.0789" y2="50.2615" gradientUnits="userSpaceOnUse">
<stop stop-color="white"/>
<stop offset="1" stop-color="white" stop-opacity="0"/>
</linearGradient>
<linearGradient id="paint1_linear_18_631" x1="137.883" y1="136.706" x2="74.8573" y2="138.031" gradientUnits="userSpaceOnUse">
<stop stop-color="white"/>
<stop offset="1" stop-color="white" stop-opacity="0"/>
</linearGradient>
<radialGradient id="paint2_radial_18_631" cx="0" cy="0" r="1" gradientUnits="userSpaceOnUse" gradientTransform="translate(75 75.0073) rotate(90) scale(69.8174 69.7607)">
<stop stop-color="#1C560D"/>
<stop offset="1" stop-opacity="0"/>
</radialGradient>
</defs>
</svg>
