<svg width="150" height="150" viewBox="0 0 150 150" fill="none" xmlns="http://www.w3.org/2000/svg">
<g clip-path="url(#clip0_18_552)">
<path d="M128.423 23.9366H125.752V18.5943C125.752 16.469 124.908 14.4307 123.405 12.9279C121.902 11.4251 119.864 10.5808 117.739 10.5808H37.6037C35.4784 10.5808 33.4401 11.4251 31.9373 12.9279C30.4345 14.4307 29.5902 16.469 29.5902 18.5943V23.9366H21.5767C20.8683 23.9366 20.1889 24.218 19.6879 24.719C19.187 25.2199 18.9056 25.8993 18.9056 26.6078C18.9056 60.6651 18.2912 60.0507 20.4281 61.0658L75 87.0562V96.058H66.9865C66.278 96.058 65.5986 96.3394 65.0977 96.8404C64.5967 97.3413 64.3153 98.0207 64.3153 98.7292C64.3153 99.4376 64.5967 100.117 65.0977 100.618C65.5986 101.119 66.278 101.4 66.9865 101.4V128.112C66.9865 130.946 68.1122 133.663 70.1159 135.667C72.1197 137.671 74.8374 138.797 77.6711 138.797C80.5049 138.797 83.2225 137.671 85.2263 135.667C87.2301 133.663 88.3558 130.946 88.3558 128.112V101.4C89.0642 101.4 89.7436 101.119 90.2446 100.618C90.7455 100.117 91.0269 99.4376 91.0269 98.7292C91.0269 98.0207 90.7455 97.3413 90.2446 96.8404C89.7436 96.3394 89.0642 96.058 88.3558 96.058H80.3423C80.3423 84.8658 80.8231 83.9309 78.8197 82.9693L24.2479 56.9789V29.2789H29.5902V34.6213C29.5902 36.7466 30.4345 38.7848 31.9373 40.2877C33.4401 41.7905 35.4784 42.6348 37.6037 42.6348H117.739C119.864 42.6348 121.902 41.7905 123.405 40.2877C124.908 38.7848 125.752 36.7466 125.752 34.6213V29.2789H128.423C129.132 29.2789 129.811 28.9975 130.312 28.4966C130.813 27.9956 131.094 27.3162 131.094 26.6078C131.094 25.8993 130.813 25.2199 130.312 24.719C129.811 24.218 129.132 23.9366 128.423 23.9366ZM83.0134 128.112C83.0134 129.529 82.4506 130.888 81.4487 131.89C80.4468 132.891 79.088 133.454 77.6711 133.454C76.2542 133.454 74.8954 132.891 73.8935 131.89C72.8916 130.888 72.3288 129.529 72.3288 128.112V101.4H83.0134V128.112ZM120.41 34.6213C120.41 35.3297 120.128 36.0091 119.627 36.5101C119.126 37.011 118.447 37.2924 117.739 37.2924H37.6037C36.8953 37.2924 36.2158 37.011 35.7149 36.5101C35.214 36.0091 34.9325 35.3297 34.9325 34.6213V18.5943C34.9325 17.8859 35.214 17.2064 35.7149 16.7055C36.2158 16.2046 36.8953 15.9231 37.6037 15.9231H117.739C118.447 15.9231 119.126 16.2046 119.627 16.7055C120.128 17.2064 120.41 17.8859 120.41 18.5943V34.6213Z" fill="#482728"/>
<path d="M128.423 23.9366H125.752V18.5943C125.752 16.469 124.908 14.4307 123.405 12.9279C121.902 11.4251 119.864 10.5808 117.739 10.5808H37.6037C35.4784 10.5808 33.4401 11.4251 31.9373 12.9279C30.4345 14.4307 29.5902 16.469 29.5902 18.5943V23.9366H21.5767C20.8683 23.9366 20.1889 24.218 19.6879 24.719C19.187 25.2199 18.9056 25.8993 18.9056 26.6078C18.9056 60.6651 18.2912 60.0507 20.4281 61.0658L75 87.0562V96.058H66.9865C66.278 96.058 65.5986 96.3394 65.0977 96.8404C64.5967 97.3413 64.3153 98.0207 64.3153 98.7292C64.3153 99.4376 64.5967 100.117 65.0977 100.618C65.5986 101.119 66.278 101.4 66.9865 101.4V128.112C66.9865 130.946 68.1122 133.663 70.1159 135.667C72.1197 137.671 74.8374 138.797 77.6711 138.797C80.5049 138.797 83.2225 137.671 85.2263 135.667C87.2301 133.663 88.3558 130.946 88.3558 128.112V101.4C89.0642 101.4 89.7436 101.119 90.2446 100.618C90.7455 100.117 91.0269 99.4376 91.0269 98.7292C91.0269 98.0207 90.7455 97.3413 90.2446 96.8404C89.7436 96.3394 89.0642 96.058 88.3558 96.058H80.3423C80.3423 84.8658 80.8231 83.9309 78.8197 82.9693L24.2479 56.9789V29.2789H29.5902V34.6213C29.5902 36.7466 30.4345 38.7848 31.9373 40.2877C33.4401 41.7905 35.4784 42.6348 37.6037 42.6348H117.739C119.864 42.6348 121.902 41.7905 123.405 40.2877C124.908 38.7848 125.752 36.7466 125.752 34.6213V29.2789H128.423C129.132 29.2789 129.811 28.9975 130.312 28.4966C130.813 27.9956 131.094 27.3162 131.094 26.6078C131.094 25.8993 130.813 25.2199 130.312 24.719C129.811 24.218 129.132 23.9366 128.423 23.9366ZM83.0134 128.112C83.0134 129.529 82.4506 130.888 81.4487 131.89C80.4468 132.891 79.088 133.454 77.6711 133.454C76.2542 133.454 74.8954 132.891 73.8935 131.89C72.8916 130.888 72.3288 129.529 72.3288 128.112V101.4H83.0134V128.112ZM120.41 34.6213C120.41 35.3297 120.128 36.0091 119.627 36.5101C119.126 37.011 118.447 37.2924 117.739 37.2924H37.6037C36.8953 37.2924 36.2158 37.011 35.7149 36.5101C35.214 36.0091 34.9325 35.3297 34.9325 34.6213V18.5943C34.9325 17.8859 35.214 17.2064 35.7149 16.7055C36.2158 16.2046 36.8953 15.9231 37.6037 15.9231H117.739C118.447 15.9231 119.126 16.2046 119.627 16.7055C120.128 17.2064 120.41 17.8859 120.41 18.5943V34.6213Z" fill="url(#paint0_linear_18_552)" fill-opacity="0.2"/>
<path d="M128.423 23.9366H125.752V18.5943C125.752 16.469 124.908 14.4307 123.405 12.9279C121.902 11.4251 119.864 10.5808 117.739 10.5808H37.6037C35.4784 10.5808 33.4401 11.4251 31.9373 12.9279C30.4345 14.4307 29.5902 16.469 29.5902 18.5943V23.9366H21.5767C20.8683 23.9366 20.1889 24.218 19.6879 24.719C19.187 25.2199 18.9056 25.8993 18.9056 26.6078C18.9056 60.6651 18.2912 60.0507 20.4281 61.0658L75 87.0562V96.058H66.9865C66.278 96.058 65.5986 96.3394 65.0977 96.8404C64.5967 97.3413 64.3153 98.0207 64.3153 98.7292C64.3153 99.4376 64.5967 100.117 65.0977 100.618C65.5986 101.119 66.278 101.4 66.9865 101.4V128.112C66.9865 130.946 68.1122 133.663 70.1159 135.667C72.1197 137.671 74.8374 138.797 77.6711 138.797C80.5049 138.797 83.2225 137.671 85.2263 135.667C87.2301 133.663 88.3558 130.946 88.3558 128.112V101.4C89.0642 101.4 89.7436 101.119 90.2446 100.618C90.7455 100.117 91.0269 99.4376 91.0269 98.7292C91.0269 98.0207 90.7455 97.3413 90.2446 96.8404C89.7436 96.3394 89.0642 96.058 88.3558 96.058H80.3423C80.3423 84.8658 80.8231 83.9309 78.8197 82.9693L24.2479 56.9789V29.2789H29.5902V34.6213C29.5902 36.7466 30.4345 38.7848 31.9373 40.2877C33.4401 41.7905 35.4784 42.6348 37.6037 42.6348H117.739C119.864 42.6348 121.902 41.7905 123.405 40.2877C124.908 38.7848 125.752 36.7466 125.752 34.6213V29.2789H128.423C129.132 29.2789 129.811 28.9975 130.312 28.4966C130.813 27.9956 131.094 27.3162 131.094 26.6078C131.094 25.8993 130.813 25.2199 130.312 24.719C129.811 24.218 129.132 23.9366 128.423 23.9366ZM83.0134 128.112C83.0134 129.529 82.4506 130.888 81.4487 131.89C80.4468 132.891 79.088 133.454 77.6711 133.454C76.2542 133.454 74.8954 132.891 73.8935 131.89C72.8916 130.888 72.3288 129.529 72.3288 128.112V101.4H83.0134V128.112ZM120.41 34.6213C120.41 35.3297 120.128 36.0091 119.627 36.5101C119.126 37.011 118.447 37.2924 117.739 37.2924H37.6037C36.8953 37.2924 36.2158 37.011 35.7149 36.5101C35.214 36.0091 34.9325 35.3297 34.9325 34.6213V18.5943C34.9325 17.8859 35.214 17.2064 35.7149 16.7055C36.2158 16.2046 36.8953 15.9231 37.6037 15.9231H117.739C118.447 15.9231 119.126 16.2046 119.627 16.7055C120.128 17.2064 120.41 17.8859 120.41 18.5943V34.6213Z" fill="url(#paint1_linear_18_552)" fill-opacity="0.2"/>
<path d="M128.423 23.9366H125.752V18.5943C125.752 16.469 124.908 14.4307 123.405 12.9279C121.902 11.4251 119.864 10.5808 117.739 10.5808H37.6037C35.4784 10.5808 33.4401 11.4251 31.9373 12.9279C30.4345 14.4307 29.5902 16.469 29.5902 18.5943V23.9366H21.5767C20.8683 23.9366 20.1889 24.218 19.6879 24.719C19.187 25.2199 18.9056 25.8993 18.9056 26.6078C18.9056 60.6651 18.2912 60.0507 20.4281 61.0658L75 87.0562V96.058H66.9865C66.278 96.058 65.5986 96.3394 65.0977 96.8404C64.5967 97.3413 64.3153 98.0207 64.3153 98.7292C64.3153 99.4376 64.5967 100.117 65.0977 100.618C65.5986 101.119 66.278 101.4 66.9865 101.4V128.112C66.9865 130.946 68.1122 133.663 70.1159 135.667C72.1197 137.671 74.8374 138.797 77.6711 138.797C80.5049 138.797 83.2225 137.671 85.2263 135.667C87.2301 133.663 88.3558 130.946 88.3558 128.112V101.4C89.0642 101.4 89.7436 101.119 90.2446 100.618C90.7455 100.117 91.0269 99.4376 91.0269 98.7292C91.0269 98.0207 90.7455 97.3413 90.2446 96.8404C89.7436 96.3394 89.0642 96.058 88.3558 96.058H80.3423C80.3423 84.8658 80.8231 83.9309 78.8197 82.9693L24.2479 56.9789V29.2789H29.5902V34.6213C29.5902 36.7466 30.4345 38.7848 31.9373 40.2877C33.4401 41.7905 35.4784 42.6348 37.6037 42.6348H117.739C119.864 42.6348 121.902 41.7905 123.405 40.2877C124.908 38.7848 125.752 36.7466 125.752 34.6213V29.2789H128.423C129.132 29.2789 129.811 28.9975 130.312 28.4966C130.813 27.9956 131.094 27.3162 131.094 26.6078C131.094 25.8993 130.813 25.2199 130.312 24.719C129.811 24.218 129.132 23.9366 128.423 23.9366ZM83.0134 128.112C83.0134 129.529 82.4506 130.888 81.4487 131.89C80.4468 132.891 79.088 133.454 77.6711 133.454C76.2542 133.454 74.8954 132.891 73.8935 131.89C72.8916 130.888 72.3288 129.529 72.3288 128.112V101.4H83.0134V128.112ZM120.41 34.6213C120.41 35.3297 120.128 36.0091 119.627 36.5101C119.126 37.011 118.447 37.2924 117.739 37.2924H37.6037C36.8953 37.2924 36.2158 37.011 35.7149 36.5101C35.214 36.0091 34.9325 35.3297 34.9325 34.6213V18.5943C34.9325 17.8859 35.214 17.2064 35.7149 16.7055C36.2158 16.2046 36.8953 15.9231 37.6037 15.9231H117.739C118.447 15.9231 119.126 16.2046 119.627 16.7055C120.128 17.2064 120.41 17.8859 120.41 18.5943V34.6213Z" fill="url(#paint2_radial_18_552)" fill-opacity="0.2"/>
<path d="M120.41 50.6482V64.004C120.41 64.7125 120.128 65.3919 119.627 65.8928C119.126 66.3938 118.447 66.6752 117.739 66.6752C117.03 66.6752 116.351 66.3938 115.85 65.8928C115.349 65.3919 115.067 64.7125 115.067 64.004V61.3329C115.067 59.2076 114.223 57.1693 112.72 55.6665C111.217 54.1636 109.179 53.3194 107.054 53.3194C104.929 53.3194 102.89 54.1636 101.388 55.6665C99.8847 57.1693 99.0404 59.2076 99.0404 61.3329V72.0175C99.0404 73.4344 98.4776 74.7932 97.4757 75.7951C96.4738 76.797 95.1149 77.3598 93.6981 77.3598C92.2812 77.3598 90.9224 76.797 89.9205 75.7951C88.9186 74.7932 88.3558 73.4344 88.3558 72.0175V50.6482C88.3558 49.9398 88.0743 49.2604 87.5734 48.7594C87.0724 48.2585 86.393 47.9771 85.6846 47.9771C84.9762 47.9771 84.2967 48.2585 83.7958 48.7594C83.2949 49.2604 83.0134 49.9398 83.0134 50.6482V72.0175C83.0134 74.8513 84.1391 77.5689 86.1429 79.5727C88.1467 81.5765 90.8643 82.7022 93.6981 82.7022C96.5318 82.7022 99.2495 81.5765 101.253 79.5727C103.257 77.5689 104.383 74.8513 104.383 72.0175V61.3329C104.383 60.6244 104.664 59.945 105.165 59.4441C105.666 58.9431 106.345 58.6617 107.054 58.6617C107.762 58.6617 108.442 58.9431 108.943 59.4441C109.444 59.945 109.725 60.6244 109.725 61.3329V64.004C109.725 66.1293 110.569 68.1676 112.072 69.6704C113.575 71.1732 115.613 72.0175 117.739 72.0175C119.864 72.0175 121.902 71.1732 123.405 69.6704C124.908 68.1676 125.752 66.1293 125.752 64.004V50.6482C125.752 49.9398 125.471 49.2604 124.97 48.7594C124.469 48.2585 123.789 47.9771 123.081 47.9771C122.372 47.9771 121.693 48.2585 121.192 48.7594C120.691 49.2604 120.41 49.9398 120.41 50.6482Z" fill="#482728"/>
<path d="M120.41 50.6482V64.004C120.41 64.7125 120.128 65.3919 119.627 65.8928C119.126 66.3938 118.447 66.6752 117.739 66.6752C117.03 66.6752 116.351 66.3938 115.85 65.8928C115.349 65.3919 115.067 64.7125 115.067 64.004V61.3329C115.067 59.2076 114.223 57.1693 112.72 55.6665C111.217 54.1636 109.179 53.3194 107.054 53.3194C104.929 53.3194 102.89 54.1636 101.388 55.6665C99.8847 57.1693 99.0404 59.2076 99.0404 61.3329V72.0175C99.0404 73.4344 98.4776 74.7932 97.4757 75.7951C96.4738 76.797 95.1149 77.3598 93.6981 77.3598C92.2812 77.3598 90.9224 76.797 89.9205 75.7951C88.9186 74.7932 88.3558 73.4344 88.3558 72.0175V50.6482C88.3558 49.9398 88.0743 49.2604 87.5734 48.7594C87.0724 48.2585 86.393 47.9771 85.6846 47.9771C84.9762 47.9771 84.2967 48.2585 83.7958 48.7594C83.2949 49.2604 83.0134 49.9398 83.0134 50.6482V72.0175C83.0134 74.8513 84.1391 77.5689 86.1429 79.5727C88.1467 81.5765 90.8643 82.7022 93.6981 82.7022C96.5318 82.7022 99.2495 81.5765 101.253 79.5727C103.257 77.5689 104.383 74.8513 104.383 72.0175V61.3329C104.383 60.6244 104.664 59.945 105.165 59.4441C105.666 58.9431 106.345 58.6617 107.054 58.6617C107.762 58.6617 108.442 58.9431 108.943 59.4441C109.444 59.945 109.725 60.6244 109.725 61.3329V64.004C109.725 66.1293 110.569 68.1676 112.072 69.6704C113.575 71.1732 115.613 72.0175 117.739 72.0175C119.864 72.0175 121.902 71.1732 123.405 69.6704C124.908 68.1676 125.752 66.1293 125.752 64.004V50.6482C125.752 49.9398 125.471 49.2604 124.97 48.7594C124.469 48.2585 123.789 47.9771 123.081 47.9771C122.372 47.9771 121.693 48.2585 121.192 48.7594C120.691 49.2604 120.41 49.9398 120.41 50.6482Z" fill="url(#paint3_linear_18_552)" fill-opacity="0.2"/>
<path d="M120.41 50.6482V64.004C120.41 64.7125 120.128 65.3919 119.627 65.8928C119.126 66.3938 118.447 66.6752 117.739 66.6752C117.03 66.6752 116.351 66.3938 115.85 65.8928C115.349 65.3919 115.067 64.7125 115.067 64.004V61.3329C115.067 59.2076 114.223 57.1693 112.72 55.6665C111.217 54.1636 109.179 53.3194 107.054 53.3194C104.929 53.3194 102.89 54.1636 101.388 55.6665C99.8847 57.1693 99.0404 59.2076 99.0404 61.3329V72.0175C99.0404 73.4344 98.4776 74.7932 97.4757 75.7951C96.4738 76.797 95.1149 77.3598 93.6981 77.3598C92.2812 77.3598 90.9224 76.797 89.9205 75.7951C88.9186 74.7932 88.3558 73.4344 88.3558 72.0175V50.6482C88.3558 49.9398 88.0743 49.2604 87.5734 48.7594C87.0724 48.2585 86.393 47.9771 85.6846 47.9771C84.9762 47.9771 84.2967 48.2585 83.7958 48.7594C83.2949 49.2604 83.0134 49.9398 83.0134 50.6482V72.0175C83.0134 74.8513 84.1391 77.5689 86.1429 79.5727C88.1467 81.5765 90.8643 82.7022 93.6981 82.7022C96.5318 82.7022 99.2495 81.5765 101.253 79.5727C103.257 77.5689 104.383 74.8513 104.383 72.0175V61.3329C104.383 60.6244 104.664 59.945 105.165 59.4441C105.666 58.9431 106.345 58.6617 107.054 58.6617C107.762 58.6617 108.442 58.9431 108.943 59.4441C109.444 59.945 109.725 60.6244 109.725 61.3329V64.004C109.725 66.1293 110.569 68.1676 112.072 69.6704C113.575 71.1732 115.613 72.0175 117.739 72.0175C119.864 72.0175 121.902 71.1732 123.405 69.6704C124.908 68.1676 125.752 66.1293 125.752 64.004V50.6482C125.752 49.9398 125.471 49.2604 124.97 48.7594C124.469 48.2585 123.789 47.9771 123.081 47.9771C122.372 47.9771 121.693 48.2585 121.192 48.7594C120.691 49.2604 120.41 49.9398 120.41 50.6482Z" fill="url(#paint4_linear_18_552)" fill-opacity="0.2"/>
<path d="M120.41 50.6482V64.004C120.41 64.7125 120.128 65.3919 119.627 65.8928C119.126 66.3938 118.447 66.6752 117.739 66.6752C117.03 66.6752 116.351 66.3938 115.85 65.8928C115.349 65.3919 115.067 64.7125 115.067 64.004V61.3329C115.067 59.2076 114.223 57.1693 112.72 55.6665C111.217 54.1636 109.179 53.3194 107.054 53.3194C104.929 53.3194 102.89 54.1636 101.388 55.6665C99.8847 57.1693 99.0404 59.2076 99.0404 61.3329V72.0175C99.0404 73.4344 98.4776 74.7932 97.4757 75.7951C96.4738 76.797 95.1149 77.3598 93.6981 77.3598C92.2812 77.3598 90.9224 76.797 89.9205 75.7951C88.9186 74.7932 88.3558 73.4344 88.3558 72.0175V50.6482C88.3558 49.9398 88.0743 49.2604 87.5734 48.7594C87.0724 48.2585 86.393 47.9771 85.6846 47.9771C84.9762 47.9771 84.2967 48.2585 83.7958 48.7594C83.2949 49.2604 83.0134 49.9398 83.0134 50.6482V72.0175C83.0134 74.8513 84.1391 77.5689 86.1429 79.5727C88.1467 81.5765 90.8643 82.7022 93.6981 82.7022C96.5318 82.7022 99.2495 81.5765 101.253 79.5727C103.257 77.5689 104.383 74.8513 104.383 72.0175V61.3329C104.383 60.6244 104.664 59.945 105.165 59.4441C105.666 58.9431 106.345 58.6617 107.054 58.6617C107.762 58.6617 108.442 58.9431 108.943 59.4441C109.444 59.945 109.725 60.6244 109.725 61.3329V64.004C109.725 66.1293 110.569 68.1676 112.072 69.6704C113.575 71.1732 115.613 72.0175 117.739 72.0175C119.864 72.0175 121.902 71.1732 123.405 69.6704C124.908 68.1676 125.752 66.1293 125.752 64.004V50.6482C125.752 49.9398 125.471 49.2604 124.97 48.7594C124.469 48.2585 123.789 47.9771 123.081 47.9771C122.372 47.9771 121.693 48.2585 121.192 48.7594C120.691 49.2604 120.41 49.9398 120.41 50.6482Z" fill="url(#paint5_radial_18_552)" fill-opacity="0.2"/>
<path d="M56.3018 21.2654H42.946C42.2376 21.2654 41.5581 21.5468 41.0572 22.0477C40.5563 22.5487 40.2748 23.2281 40.2748 23.9365C40.2748 24.645 40.5563 25.3244 41.0572 25.8253C41.5581 26.3263 42.2376 26.6077 42.946 26.6077H56.3018C57.0103 26.6077 57.6897 26.3263 58.1906 25.8253C58.6916 25.3244 58.973 24.645 58.973 23.9365C58.973 23.2281 58.6916 22.5487 58.1906 22.0477C57.6897 21.5468 57.0103 21.2654 56.3018 21.2654Z" fill="#482728"/>
<path d="M56.3018 21.2654H42.946C42.2376 21.2654 41.5581 21.5468 41.0572 22.0477C40.5563 22.5487 40.2748 23.2281 40.2748 23.9365C40.2748 24.645 40.5563 25.3244 41.0572 25.8253C41.5581 26.3263 42.2376 26.6077 42.946 26.6077H56.3018C57.0103 26.6077 57.6897 26.3263 58.1906 25.8253C58.6916 25.3244 58.973 24.645 58.973 23.9365C58.973 23.2281 58.6916 22.5487 58.1906 22.0477C57.6897 21.5468 57.0103 21.2654 56.3018 21.2654Z" fill="url(#paint6_linear_18_552)" fill-opacity="0.2"/>
<path d="M56.3018 21.2654H42.946C42.2376 21.2654 41.5581 21.5468 41.0572 22.0477C40.5563 22.5487 40.2748 23.2281 40.2748 23.9365C40.2748 24.645 40.5563 25.3244 41.0572 25.8253C41.5581 26.3263 42.2376 26.6077 42.946 26.6077H56.3018C57.0103 26.6077 57.6897 26.3263 58.1906 25.8253C58.6916 25.3244 58.973 24.645 58.973 23.9365C58.973 23.2281 58.6916 22.5487 58.1906 22.0477C57.6897 21.5468 57.0103 21.2654 56.3018 21.2654Z" fill="url(#paint7_linear_18_552)" fill-opacity="0.2"/>
<path d="M56.3018 21.2654H42.946C42.2376 21.2654 41.5581 21.5468 41.0572 22.0477C40.5563 22.5487 40.2748 23.2281 40.2748 23.9365C40.2748 24.645 40.5563 25.3244 41.0572 25.8253C41.5581 26.3263 42.2376 26.6077 42.946 26.6077H56.3018C57.0103 26.6077 57.6897 26.3263 58.1906 25.8253C58.6916 25.3244 58.973 24.645 58.973 23.9365C58.973 23.2281 58.6916 22.5487 58.1906 22.0477C57.6897 21.5468 57.0103 21.2654 56.3018 21.2654Z" fill="url(#paint8_radial_18_552)" fill-opacity="0.2"/>
<path d="M69.6577 21.2654H64.3153C63.6069 21.2654 62.9275 21.5468 62.4265 22.0477C61.9256 22.5487 61.6442 23.2281 61.6442 23.9365C61.6442 24.645 61.9256 25.3244 62.4265 25.8253C62.9275 26.3263 63.6069 26.6077 64.3153 26.6077H69.6577C70.3661 26.6077 71.0455 26.3263 71.5465 25.8253C72.0474 25.3244 72.3288 24.645 72.3288 23.9365C72.3288 23.2281 72.0474 22.5487 71.5465 22.0477C71.0455 21.5468 70.3661 21.2654 69.6577 21.2654Z" fill="#482728"/>
<path d="M69.6577 21.2654H64.3153C63.6069 21.2654 62.9275 21.5468 62.4265 22.0477C61.9256 22.5487 61.6442 23.2281 61.6442 23.9365C61.6442 24.645 61.9256 25.3244 62.4265 25.8253C62.9275 26.3263 63.6069 26.6077 64.3153 26.6077H69.6577C70.3661 26.6077 71.0455 26.3263 71.5465 25.8253C72.0474 25.3244 72.3288 24.645 72.3288 23.9365C72.3288 23.2281 72.0474 22.5487 71.5465 22.0477C71.0455 21.5468 70.3661 21.2654 69.6577 21.2654Z" fill="url(#paint9_linear_18_552)" fill-opacity="0.2"/>
<path d="M69.6577 21.2654H64.3153C63.6069 21.2654 62.9275 21.5468 62.4265 22.0477C61.9256 22.5487 61.6442 23.2281 61.6442 23.9365C61.6442 24.645 61.9256 25.3244 62.4265 25.8253C62.9275 26.3263 63.6069 26.6077 64.3153 26.6077H69.6577C70.3661 26.6077 71.0455 26.3263 71.5465 25.8253C72.0474 25.3244 72.3288 24.645 72.3288 23.9365C72.3288 23.2281 72.0474 22.5487 71.5465 22.0477C71.0455 21.5468 70.3661 21.2654 69.6577 21.2654Z" fill="url(#paint10_linear_18_552)" fill-opacity="0.2"/>
<path d="M69.6577 21.2654H64.3153C63.6069 21.2654 62.9275 21.5468 62.4265 22.0477C61.9256 22.5487 61.6442 23.2281 61.6442 23.9365C61.6442 24.645 61.9256 25.3244 62.4265 25.8253C62.9275 26.3263 63.6069 26.6077 64.3153 26.6077H69.6577C70.3661 26.6077 71.0455 26.3263 71.5465 25.8253C72.0474 25.3244 72.3288 24.645 72.3288 23.9365C72.3288 23.2281 72.0474 22.5487 71.5465 22.0477C71.0455 21.5468 70.3661 21.2654 69.6577 21.2654Z" fill="url(#paint11_radial_18_552)" fill-opacity="0.2"/>
</g>
<defs>
<linearGradient id="paint0_linear_18_552" x1="125.033" y1="23.9987" x2="48.359" y2="45.9701" gradientUnits="userSpaceOnUse">
<stop stop-color="white"/>
<stop offset="1" stop-color="white" stop-opacity="0"/>
</linearGradient>
<linearGradient id="paint1_linear_18_552" x1="125.56" y1="131.342" x2="74.839" y2="132.276" gradientUnits="userSpaceOnUse">
<stop stop-color="white"/>
<stop offset="1" stop-color="white" stop-opacity="0"/>
</linearGradient>
<radialGradient id="paint2_radial_18_552" cx="0" cy="0" r="1" gradientUnits="userSpaceOnUse" gradientTransform="translate(74.959 74.6887) rotate(90) scale(64.1079 56.1353)">
<stop stop-color="#1C560D"/>
<stop offset="1" stop-opacity="0"/>
</radialGradient>
<linearGradient id="paint3_linear_18_552" x1="123.445" y1="51.6111" x2="96.2687" y2="62.5568" gradientUnits="userSpaceOnUse">
<stop stop-color="white"/>
<stop offset="1" stop-color="white" stop-opacity="0"/>
</linearGradient>
<linearGradient id="paint4_linear_18_552" x1="123.645" y1="80.6833" x2="104.343" y2="81.1828" gradientUnits="userSpaceOnUse">
<stop stop-color="white"/>
<stop offset="1" stop-color="white" stop-opacity="0"/>
</linearGradient>
<radialGradient id="paint5_radial_18_552" cx="0" cy="0" r="1" gradientUnits="userSpaceOnUse" gradientTransform="translate(104.383 65.3396) rotate(90) scale(17.3626 21.3693)">
<stop stop-color="#1C560D"/>
<stop offset="1" stop-opacity="0"/>
</radialGradient>
<linearGradient id="paint6_linear_18_552" x1="57.9635" y1="21.8245" x2="51.9865" y2="28.6704" gradientUnits="userSpaceOnUse">
<stop stop-color="white"/>
<stop offset="1" stop-color="white" stop-opacity="0"/>
</linearGradient>
<linearGradient id="paint7_linear_18_552" x1="58.0512" y1="26.2971" x2="49.6466" y2="26.9157" gradientUnits="userSpaceOnUse">
<stop stop-color="white"/>
<stop offset="1" stop-color="white" stop-opacity="0"/>
</linearGradient>
<radialGradient id="paint8_radial_18_552" cx="0" cy="0" r="1" gradientUnits="userSpaceOnUse" gradientTransform="translate(49.6239 23.9365) rotate(90) scale(2.67116 9.34907)">
<stop stop-color="#1C560D"/>
<stop offset="1" stop-opacity="0"/>
</radialGradient>
<linearGradient id="paint9_linear_18_552" x1="71.7519" y1="21.8245" x2="66.2239" y2="25.4426" gradientUnits="userSpaceOnUse">
<stop stop-color="white"/>
<stop offset="1" stop-color="white" stop-opacity="0"/>
</linearGradient>
<linearGradient id="paint10_linear_18_552" x1="71.8021" y1="26.2971" x2="66.982" y2="26.4998" gradientUnits="userSpaceOnUse">
<stop stop-color="white"/>
<stop offset="1" stop-color="white" stop-opacity="0"/>
</linearGradient>
<radialGradient id="paint11_radial_18_552" cx="0" cy="0" r="1" gradientUnits="userSpaceOnUse" gradientTransform="translate(66.9865 23.9365) rotate(90) scale(2.67116 5.34232)">
<stop stop-color="#1C560D"/>
<stop offset="1" stop-opacity="0"/>
</radialGradient>
<clipPath id="clip0_18_552">
<rect width="128.216" height="128.216" fill="white" transform="translate(10.8921 10.5808)"/>
</clipPath>
</defs>
</svg>
