<svg width="73" height="73" viewBox="0 0 73 73" fill="none" xmlns="http://www.w3.org/2000/svg">
<path d="M49.3069 46.9286C62.206 46.9286 72.6628 36.4233 72.6628 23.4643C72.6628 10.5053 62.206 0 49.3069 0C36.4078 0 25.951 10.5053 25.951 23.4643C25.951 36.4233 36.4078 46.9286 49.3069 46.9286Z" fill="#16A41C"/>
<path d="M49.3069 46.9286C62.206 46.9286 72.6628 36.4233 72.6628 23.4643C72.6628 10.5053 62.206 0 49.3069 0C36.4078 0 25.951 10.5053 25.951 23.4643C25.951 36.4233 36.4078 46.9286 49.3069 46.9286Z" fill="url(#paint0_linear_18_69)" fill-opacity="0.2"/>
<path d="M49.3069 46.9286C62.206 46.9286 72.6628 36.4233 72.6628 23.4643C72.6628 10.5053 62.206 0 49.3069 0C36.4078 0 25.951 10.5053 25.951 23.4643C25.951 36.4233 36.4078 46.9286 49.3069 46.9286Z" fill="url(#paint1_linear_18_69)" fill-opacity="0.2"/>
<path d="M49.3069 46.9286C62.206 46.9286 72.6628 36.4233 72.6628 23.4643C72.6628 10.5053 62.206 0 49.3069 0C36.4078 0 25.951 10.5053 25.951 23.4643C25.951 36.4233 36.4078 46.9286 49.3069 46.9286Z" fill="url(#paint2_radial_18_69)" fill-opacity="0.2"/>
<path fill-rule="evenodd" clip-rule="evenodd" d="M0 62.5714V31.2857L33.7363 0L67.4726 31.2857V73H10.3804V67.7857H62.2824V33.5696L33.7363 7.09664L5.1902 33.5696V62.5714H0ZM5.1902 67.7857H0V73H5.1902V67.7857Z" fill="#242424"/>
<defs>
<linearGradient id="paint0_linear_18_69" x1="68.7397" y1="7.63953" x2="20.192" y2="23.4536" gradientUnits="userSpaceOnUse">
<stop stop-color="white"/>
<stop offset="1" stop-color="white" stop-opacity="0"/>
</linearGradient>
<linearGradient id="paint1_linear_18_69" x1="69.0808" y1="68.7558" x2="36.2569" y2="69.4429" gradientUnits="userSpaceOnUse">
<stop stop-color="white"/>
<stop offset="1" stop-color="white" stop-opacity="0"/>
</linearGradient>
<radialGradient id="paint2_radial_18_69" cx="0" cy="0" r="1" gradientUnits="userSpaceOnUse" gradientTransform="translate(36.3314 36.5) rotate(90) scale(36.5 36.3314)">
<stop stop-color="#1C560D"/>
<stop offset="1" stop-opacity="0"/>
</radialGradient>
</defs>
</svg>
